<svg width="18" height="18" viewBox="0 0 18 18" fill="none" xmlns="http://www.w3.org/2000/svg">
<rect x="0.75" y="0.75" width="16.5" height="16.5" rx="1.25" stroke="black" stroke-width="1.5"/>
<path d="M6 9V13H6.96928H7.93857V11.8085V10.617H8.71399C10.1054 10.617 10.712 10.5262 11.3936 10.2142C12.4879 9.71773 13.0633 8.77305 12.9945 7.59575C12.9132 6.21418 11.9189 5.25532 10.3461 5.03972C10.1116 5.00851 9.62074 5 8.02611 5H6V9ZM10.0147 6.64539C10.3336 6.71915 10.5369 6.82128 10.7213 7.00567C10.9465 7.22979 11.0153 7.40851 11.0153 7.79433C11.0153 8.05248 11.0028 8.13475 10.9433 8.27092C10.8527 8.48085 10.5932 8.73617 10.3524 8.85248C10.0303 9.00851 9.87088 9.02837 8.85469 9.02837H7.93857V7.80851V6.58865H8.85469C9.66764 6.58865 9.80209 6.59433 10.0147 6.64539Z" fill="black"/>
</svg>
