<svg width="27" height="16" viewBox="0 0 27 16" fill="none" xmlns="http://www.w3.org/2000/svg">
<path d="M2.43811 0.0401764C1.89932 0.18948 1.40597 0.572477 1.1528 1.05285C1.01648 1.30601 1.00999 1.3904 0.990515 3.88962L0.971041 6.47322H0.626993C0.354351 6.47322 0.256979 6.50568 0.146624 6.62253C0.0103036 6.76534 0.00381216 6.82376 0.00381216 8.19995C0.00381216 10.0825 -0.164966 9.9137 1.74353 9.9137H3.18463V10.8809V11.8546L1.71756 11.8741C0.263471 11.8936 0.250488 11.8936 0.12715 12.0494C0.0167951 12.1857 0.00381216 12.322 0.00381216 13.6463C0.00381216 14.9706 0.0167951 15.1069 0.12715 15.2432L0.250488 15.399L13.0322 15.4185C14.5588 15.4199 16.0284 15.4207 17.3945 15.4209C22.3135 15.4215 25.8907 15.4142 25.9567 15.399C26.0346 15.3795 26.1579 15.3081 26.2293 15.2367C26.3527 15.1134 26.3592 15.016 26.3592 13.6528C26.3592 12.322 26.3462 12.1857 26.2358 12.0494C26.1125 11.8936 26.0995 11.8936 24.6454 11.8741L23.1784 11.8546V10.8809V9.9137H24.626C26.528 9.9137 26.3592 10.0825 26.3592 8.18697C26.3592 6.77183 26.3592 6.75235 26.2099 6.61603C26.093 6.50568 25.9762 6.47322 25.723 6.47322H25.3919L25.3725 3.88962C25.353 0.961966 25.366 1.05934 24.7817 0.514054C24.2235 0.00122833 24.2819 0.0142107 21.6529 0.0142107H19.3159L18.9459 0.195972C18.5305 0.4037 18.2254 0.715289 18.0241 1.14373C17.8943 1.42935 17.8878 1.55918 17.8683 3.95453L17.8489 6.47322H17.3945H16.9465V4.04541C16.9465 1.94867 16.9336 1.57216 16.8362 1.28005C16.6934 0.838628 16.2714 0.371242 15.83 0.170006C15.486 0.0142107 15.473 0.0142107 13.1815 0.0142107C10.89 0.0142107 10.877 0.0142107 10.533 0.170006C10.0916 0.371242 9.66961 0.838628 9.5268 1.28005C9.42942 1.57216 9.41644 1.94867 9.41644 4.04541V6.47322H8.96853H8.51413L8.49465 3.95453L8.47518 1.44233L8.29342 1.07232C8.08569 0.656866 7.7741 0.351768 7.34566 0.150532C7.06004 0.0207024 6.9367 0.0142117 4.83996 0.00122833C3.62605 -0.00526333 2.54847 0.0142107 2.43811 0.0401764ZM7.06004 1.18917C7.46251 1.48128 7.469 1.52672 7.469 4.11682V6.47322H4.74258H2.01617V4.04541C2.01617 1.63059 2.01617 1.62409 2.16547 1.40339C2.40566 1.03986 2.53548 1.02039 4.82048 1.03986C6.7874 1.05285 6.88477 1.05934 7.06004 1.18917ZM15.4275 1.14373C15.9014 1.35794 15.9079 1.3904 15.9079 4.09734V6.47322H13.1815H10.4551V4.09734C10.4551 1.39689 10.4551 1.3904 10.929 1.15671C11.1886 1.02688 11.312 1.02039 13.1815 1.02039C14.9666 1.02039 15.1874 1.03337 15.4275 1.14373ZM23.8275 1.10478C23.9508 1.15022 24.1131 1.28005 24.1975 1.40339C24.3468 1.62409 24.3468 1.63059 24.3468 4.04541V6.47322H21.6204H18.8875L18.907 4.04541C18.9264 1.70199 18.9329 1.60462 19.0628 1.42935C19.3549 1.03337 19.4393 1.02039 21.6204 1.02688C22.9771 1.02688 23.6717 1.05285 23.8275 1.10478ZM8.44272 8.19346V8.87506H4.74258H1.04245V8.19346V7.51186H4.74258H8.44272V8.19346ZM16.8816 8.19346V8.87506H13.1815H9.48136V8.19346V7.51186H13.1815H16.8816V8.19346ZM25.3205 8.19346V8.87506H21.6204H17.9203V8.19346V7.51186H21.6204H25.3205V8.19346ZM5.19699 10.8874V11.8611H4.71013H4.22327V10.8874V9.9137H4.71013H5.19699V10.8874ZM11.6755 10.9004L11.6949 11.8611H8.96204H6.23562V10.8874V9.9137L8.94906 9.92668L11.656 9.94616L11.6755 10.9004ZM13.6359 10.8874V11.8611H13.1815H12.7271V10.8874V9.9137H13.1815H13.6359V10.8874ZM20.1274 10.8874V11.8611H17.4009H14.6745V10.9329C14.6745 10.42 14.694 9.97861 14.72 9.95914C14.7394 9.93317 15.9663 9.9137 17.4464 9.9137H20.1274V10.8874ZM22.1397 10.8874V11.8611H21.6529H21.166V10.8874V9.9137H21.6529H22.1397V10.8874ZM25.3205 13.6463V14.3928H17.3963H13.1815H1.04245V13.6463V12.8998H13.1815H17.3991H25.3205V13.6463Z" fill="black"/>
<path d="M3.15222 2.35113C2.89256 2.6043 2.94449 2.97431 3.25608 3.13011C3.39889 3.208 3.72996 3.22748 4.76859 3.22748C6.0539 3.22748 6.10583 3.22099 6.26812 3.07817C6.49532 2.88992 6.5083 2.57184 6.30058 2.35113L6.15127 2.18884H4.72964H3.30801L3.15222 2.35113Z" fill="black"/>
<path d="M11.63 2.2992C11.5586 2.36411 11.4742 2.50693 11.4547 2.62377C11.4222 2.79904 11.4482 2.86396 11.6105 3.03273L11.8052 3.22748H13.1814H14.5576L14.7459 3.03923C14.8497 2.93536 14.9341 2.79904 14.9341 2.74062C14.9341 2.58482 14.7589 2.27323 14.642 2.22779C14.5836 2.20832 13.9085 2.18884 13.149 2.18884C11.9286 2.18884 11.7533 2.20183 11.63 2.2992Z" fill="black"/>
<path d="M20.0624 2.35113C19.8482 2.57833 19.8612 2.87694 20.0884 3.07817C20.2637 3.22099 20.2961 3.22748 21.5944 3.22748C22.633 3.22748 22.9641 3.208 23.1069 3.13011C23.4185 2.97431 23.4704 2.6043 23.2108 2.35113L23.055 2.18884H21.6334H20.2117L20.0624 2.35113Z" fill="black"/>
</svg>
