<svg width="17" height="22" viewBox="0 0 17 22" fill="none" xmlns="http://www.w3.org/2000/svg">
<path d="M11 18.5H6M11 18.5C11 17.7865 11 17.4297 11.0381 17.193C11.1609 16.4296 11.1824 16.3815 11.6692 15.7807C11.8201 15.5945 12.3805 15.0927 13.5012 14.0892C15.0349 12.7159 16 10.7206 16 8.5C16 4.35786 12.6421 1 8.5 1C4.35786 1 1 4.35786 1 8.5C1 10.7206 1.9651 12.7159 3.49876 14.0892C4.61945 15.0927 5.17987 15.5945 5.33082 15.7807C5.81762 16.3815 5.8391 16.4296 5.96192 17.193C6 17.4297 6 17.7865 6 18.5M11 18.5C11 19.4346 11 19.9019 10.799 20.25C10.6674 20.478 10.478 20.6674 10.25 20.799C9.90192 21 9.43462 21 8.5 21C7.56538 21 7.09808 21 6.75 20.799C6.52197 20.6674 6.33261 20.478 6.20096 20.25C6 19.9019 6 19.4346 6 18.5" stroke="#292929" stroke-width="1.5"/>
<path d="M8.5 16V14" stroke="#292929" stroke-width="1.5" stroke-linecap="round"/>
<path d="M10.2324 13C9.88664 13.5978 9.2403 14 8.50001 14C7.75973 14 7.11339 13.5978 6.76758 13" stroke="#292929" stroke-width="1.5" stroke-linecap="round"/>
</svg>
