<svg width="16" height="22" viewBox="0 0 16 22" fill="none" xmlns="http://www.w3.org/2000/svg">
<path d="M11.2221 0.0194149C11.2841 0.028017 11.4835 0.0581284 11.6651 0.0839367C11.8467 0.109745 12.1701 0.187172 12.3827 0.255997C14.3716 0.884018 15.7625 2.58312 15.9619 4.61774C15.9929 4.93175 16.0062 7.83097 15.9973 13.3068L15.984 21.5227L15.8821 21.6819C15.6651 22.0217 15.1911 22.1034 14.8633 21.8582C14.5665 21.6431 14.5887 22.2884 14.5887 13.1046C14.5842 6.23941 14.5754 4.69086 14.5267 4.42417C14.1944 2.66485 12.5953 1.37009 10.7526 1.37009C9.70717 1.37009 8.75036 1.77873 8.00618 2.5444C7.59865 2.96165 7.3373 3.3875 7.15125 3.93379C6.99178 4.39406 6.92091 4.92744 7.01836 4.95325C7.0538 4.96186 7.25756 5.00487 7.47904 5.04359C8.04604 5.15112 8.46243 5.29307 9.07373 5.58558C10.8279 6.43728 12.0859 8.08906 12.396 9.93871C12.4314 10.1581 12.4624 10.4936 12.4624 10.6872C12.4624 11.07 12.3916 11.2292 12.1391 11.4098L12.015 11.5002L6.31404 11.5131C0.0194759 11.526 0.364991 11.5389 0.147937 11.255C0.00175762 11.0614 -0.0248203 10.8807 0.0194759 10.4033C0.218812 8.33855 1.52999 6.4975 3.46133 5.56407C3.9486 5.32318 4.67063 5.0909 5.15347 5.01778L5.52999 4.95756L5.57872 4.57042C5.6806 3.80045 5.82235 3.33158 6.14128 2.72507C6.92534 1.25395 8.43585 0.243093 10.159 0.0366192C10.5178 -0.00639534 10.9873 -0.0106964 11.2221 0.0194149ZM5.73818 6.31684C4.0682 6.5018 2.66842 7.44383 1.94195 8.87624C1.72047 9.30639 1.52113 9.87849 1.52113 10.0678C1.52113 10.1409 1.75591 10.1452 6.26089 10.1452C8.99399 10.1452 11.0006 10.128 11.0006 10.1065C11.0006 9.99893 10.757 9.27628 10.6285 9.00528C9.76919 7.19865 7.75368 6.08886 5.73818 6.31684Z" fill="#292929"/>
<path d="M10.3982 13.0832C10.6817 13.2423 10.7349 13.3886 10.7349 14.0424C10.7349 14.5543 10.726 14.6188 10.633 14.7478C10.4071 15.0705 10.0571 15.1737 9.72933 15.0102C9.41039 14.8554 9.36166 14.722 9.36166 14.0295C9.36166 13.4746 9.37052 13.4144 9.45912 13.2853C9.66731 12.9885 10.0748 12.9025 10.3982 13.0832Z" fill="#292929"/>
<path d="M6.61983 13.0831C6.704 13.1347 6.81474 13.2637 6.87233 13.3713C6.96535 13.5476 6.97421 13.6079 6.96092 14.081C6.9432 14.6574 6.89447 14.7994 6.65084 14.9715C6.45594 15.1048 6.05727 15.1134 5.88008 14.9801C5.59658 14.7736 5.57443 14.7134 5.57443 14.038C5.57443 13.4788 5.58329 13.41 5.66746 13.2982C5.91109 12.9798 6.31862 12.8852 6.61983 13.0831Z" fill="#292929"/>
<path d="M2.77931 13.0832C3.06281 13.2423 3.11597 13.3886 3.11597 14.0424C3.11597 14.5543 3.10711 14.6188 3.01408 14.7478C2.78817 15.0705 2.43823 15.1737 2.11043 15.0102C1.79149 14.8554 1.74277 14.722 1.74277 14.0295C1.74277 13.4746 1.75163 13.4144 1.84022 13.2853C2.04842 12.9885 2.45595 12.9025 2.77931 13.0832Z" fill="#292929"/>
<path d="M8.51552 16.2189C8.81673 16.4168 8.85217 16.5028 8.86546 17.1051C8.87875 17.604 8.86989 17.6686 8.77687 17.8449C8.66613 18.0514 8.38263 18.2321 8.16557 18.2321C7.94852 18.2321 7.66502 18.0514 7.55428 17.8449C7.47011 17.6815 7.45682 17.5868 7.45682 17.1696C7.45682 16.6233 7.50112 16.477 7.71818 16.2792C7.82892 16.1759 7.90422 16.1501 8.10799 16.1329C8.32061 16.12 8.39149 16.1329 8.51552 16.2189Z" fill="#292929"/>
<path d="M4.70157 16.2104C4.97621 16.3738 5.02051 16.5029 5.02051 17.161C5.02051 17.6987 5.01165 17.7589 4.91863 17.888C4.75473 18.1245 4.59969 18.2106 4.33391 18.2106C4.06813 18.2106 3.91309 18.1245 3.74476 17.888C3.65617 17.7589 3.64731 17.6944 3.64731 17.1825C3.64731 16.5459 3.69604 16.3953 3.95739 16.219C4.14786 16.0942 4.49338 16.0899 4.70157 16.2104Z" fill="#292929"/>
</svg>
