<svg width="22" height="16" viewBox="0 0 22 16" fill="none" xmlns="http://www.w3.org/2000/svg">
<path d="M8.53589 2.90909C8.53589 1.85473 9.48684 1 10.6599 1C11.8329 1 12.7839 1.85473 12.7839 2.90909C12.7839 3.40532 12.6046 3.85733 12.2925 4.19682C11.6948 4.84706 10.8015 5.50197 10.8015 6.34545V6.6299M10.8015 6.6299C11.533 6.6214 12.2674 6.82458 12.8845 7.24056L20.317 12.2509C21.6234 13.1315 20.9305 15 19.2975 15H2.70254C1.08721 15 0.383223 13.1648 1.65531 12.27L8.751 7.27872C9.35342 6.85497 10.076 6.63834 10.8015 6.6299Z" stroke="#292929" stroke-width="1.5" stroke-linecap="round"/>
</svg>
