<svg width="25" height="24" viewBox="0 0 25 24" fill="none" xmlns="http://www.w3.org/2000/svg">
<path d="M16.4167 8.33333L23.75 1M23.75 1V4.66667M23.75 1H20.0833M23.7328 9.25C23.75 10.0266 23.75 10.9294 23.75 12C23.75 15.4169 23.75 17.1254 23.1918 18.473C22.4475 20.2699 21.0199 21.6975 19.223 22.4418C17.8754 23 16.1669 23 12.75 23C9.3331 23 7.62464 23 6.27699 22.4418C4.48012 21.6975 3.05251 20.2699 2.30822 18.473C1.75 17.1254 1.75 15.4169 1.75 12C1.75 8.5831 1.75 6.87464 2.30822 5.52699C3.05251 3.73012 4.48012 2.30251 6.27699 1.55822C7.62464 1 9.3331 1 12.75 1C13.8206 1 14.7234 1 15.5 1.01717" stroke="white" stroke-width="2" stroke-linecap="round"/>
</svg>
