<svg width="98" height="136" viewBox="0 0 98 136" fill="none" xmlns="http://www.w3.org/2000/svg">
<path d="M48.7328 0C22.1633 0 0 21.4047 0 48.7328C0 59.1284 3.12661 68.4027 9.12257 77.0899L45.0059 133.085C46.7473 135.809 50.7248 135.803 52.4662 133.085L88.5079 76.8986C94.3719 68.6072 97.4721 58.8646 97.4721 48.7328C97.4721 21.8598 75.6123 0 48.7394 0H48.7328ZM48.7328 70.8895C36.5166 70.8895 26.5827 60.949 26.5827 48.7394C26.5827 36.5298 36.5232 26.5893 48.7328 26.5893C60.9424 26.5893 70.8828 36.5298 70.8828 48.7394C70.8828 60.949 60.9424 70.8895 48.7328 70.8895Z" fill="#292929"/>
<path d="M48.5282 87.9276C69.2386 87.9276 86.0277 71.1385 86.0277 50.4281C86.0277 29.7178 69.2386 12.9287 48.5282 12.9287C27.8179 12.9287 11.0288 29.7178 11.0288 50.4281C11.0288 71.1385 27.8179 87.9276 48.5282 87.9276Z" fill="white"/>
<path d="M79.2534 59.9727C79.1479 60.3091 79.0489 60.6389 78.9302 60.9753C78.7257 61.6415 78.4817 62.3011 78.2112 62.941C78.0859 63.2642 77.9408 63.5676 77.8023 63.8908C77.6571 64.214 77.5186 64.5175 77.3669 64.8275C77.136 65.3288 76.8788 65.8169 76.6084 66.3051C76.4434 66.6151 76.2587 66.9251 76.0806 67.2285C75.7047 67.8551 75.3089 68.4884 74.8735 69.0952C73.8577 70.5728 72.71 71.9646 71.4501 73.2508C71.2192 73.4817 70.9884 73.7126 70.7443 73.9435H61.3051L54.8738 62.3671L61.3051 50.7908H74.1677L79.26 59.9595L79.2534 59.9727Z" fill="white"/>
<path d="M70.7443 73.9502C70.2825 74.3987 69.8076 74.8407 69.3195 75.2497C69.2931 75.2761 69.2799 75.3024 69.2535 75.3156C68.8182 75.6916 68.3762 76.0478 67.9145 76.3842C67.809 76.4765 67.6968 76.5557 67.5781 76.6283C67.1164 76.991 66.6414 77.3209 66.1533 77.6441C66.0808 77.6903 66.0082 77.7364 65.9356 77.7694C65.5596 78.0333 65.1705 78.2773 64.7681 78.5016C64.4449 78.7061 64.1151 78.8842 63.7787 79.0689C63.3169 79.3129 62.8552 79.557 62.3869 79.7747C62.0043 79.9659 61.6283 80.1375 61.2326 80.3156C60.6389 80.5728 60.0386 80.8037 59.4318 81.0214C59.1086 81.1467 58.7788 81.2522 58.4423 81.3578C57.9806 81.5095 57.5189 81.6546 57.044 81.7799C57.0176 81.7931 56.9846 81.8063 56.9516 81.8063L61.3117 73.9502H70.7509H70.7443Z" fill="#292929"/>
<path d="M39.9467 81.8063C39.9467 81.8063 39.8873 81.7997 39.8543 81.7799C39.3794 81.6546 38.9177 81.5095 38.4493 81.3578C38.1129 81.2522 37.7831 81.1533 37.4599 81.0214C36.853 80.8037 36.2528 80.5728 35.6591 80.3156C35.2633 80.1375 34.8874 79.9659 34.5048 79.7747C34.043 79.557 33.5813 79.3129 33.113 79.0689C32.7766 78.8908 32.4468 78.7061 32.1236 78.5016C31.7212 78.2773 31.332 78.0333 30.956 77.7694C30.8835 77.7298 30.8109 77.6903 30.7384 77.6441C30.2502 77.3209 29.7753 76.991 29.3136 76.6283C29.1948 76.5557 29.0827 76.4765 28.9772 76.3842C28.5154 76.0478 28.0801 75.6916 27.6381 75.3156C27.6117 75.3024 27.5986 75.2761 27.5722 75.2497C27.0841 74.8407 26.6091 74.3987 26.1474 73.9502H35.5866L39.9467 81.8063Z" fill="#292929"/>
<path d="M42.0178 62.3737L35.5865 73.95H26.1474C25.9033 73.7191 25.6724 73.4883 25.4416 73.2574C24.1817 71.9712 23.0405 70.586 22.0181 69.1018C21.5828 68.495 21.1804 67.8683 20.811 67.2351C20.6329 66.9251 20.4482 66.6151 20.2833 66.3116C20.0129 65.8235 19.7556 65.3354 19.5248 64.8341C19.3731 64.5241 19.2279 64.214 19.0894 63.8974C18.9509 63.5742 18.8058 63.2642 18.6805 62.9475C18.41 62.3077 18.166 61.6481 17.9615 60.9819C17.8493 60.6455 17.7438 60.3157 17.6382 59.9793L22.7305 50.8105H35.5931L42.0244 62.3869L42.0178 62.3737Z" fill="white"/>
<path d="M22.724 50.804L17.6317 59.9727C15.8507 53.9899 15.8507 47.618 17.6317 41.6353L22.724 50.804Z" fill="#292929"/>
<path d="M42.0178 39.2277L35.5865 50.8041H22.7239L17.6317 41.6353C19.2081 36.3122 22.1369 31.497 26.1474 27.658H35.5865L42.0178 39.2343V39.2277Z" fill="white"/>
<path d="M61.3052 50.8041L54.8738 62.3805H42.0178L35.5865 50.8041L42.0178 39.2278H54.8738L61.3052 50.8041Z" fill="#292929"/>
<path d="M61.3052 73.9501L56.9451 81.8062C56.9451 81.8062 56.9187 81.8194 56.9055 81.8194C56.5823 81.9118 56.2789 81.9843 55.9556 82.0503C55.9359 82.0767 55.8963 82.0832 55.8633 82.0766C55.5401 82.169 55.2235 82.2284 54.887 82.2943C54.7683 82.3339 54.643 82.3603 54.5111 82.3735C54.1615 82.4526 53.8053 82.4988 53.4557 82.5516C52.4662 82.7165 51.4702 82.8286 50.4742 82.888C50.2961 82.9012 50.0982 82.9144 49.9069 82.9144C49.4188 82.9408 48.9307 82.954 48.4426 82.954C47.9544 82.954 47.4663 82.9408 46.9782 82.9144C46.7869 82.9144 46.5956 82.9012 46.4109 82.888C45.4083 82.8286 44.4123 82.7165 43.4294 82.5516C43.0798 82.4988 42.7236 82.446 42.374 82.3735C42.2487 82.3603 42.1234 82.3339 41.9981 82.2943C41.6617 82.2284 41.345 82.169 41.0218 82.0766C40.9888 82.0832 40.9559 82.0767 40.9295 82.0503C40.6063 81.9843 40.2963 81.9118 39.9796 81.8194C39.9664 81.8194 39.9533 81.8194 39.9401 81.8062L35.58 73.9501L42.0113 62.3738H54.8673L61.2986 73.9501H61.3052Z" fill="white"/>
<path d="M79.2534 41.6353L74.1612 50.8041H61.2986L54.8672 39.2277L61.2986 27.6514H70.7377C74.7416 31.4904 77.6769 36.3122 79.2534 41.6287V41.6353Z" fill="white"/>
<path d="M70.7443 27.6512H61.3052L56.9451 19.7952C62.1363 21.2068 66.8855 23.9112 70.7443 27.6512Z" fill="#292929"/>
<path d="M39.9467 19.7952L35.5866 27.6512H26.1474C30.0062 23.9046 34.7554 21.2068 39.9467 19.7952Z" fill="#292929"/>
<path d="M61.3052 27.6514L54.8738 39.2278H42.0178L35.5865 27.6514L39.9466 19.7954C45.5138 18.2717 51.3845 18.2717 56.9451 19.7954L61.3052 27.6514Z" fill="white"/>
<path d="M80.5924 50.804C80.5924 53.9108 80.1439 56.9978 79.2534 59.9727L74.1611 50.804L79.2534 41.6353C80.1439 44.6101 80.599 47.6972 80.5924 50.804Z" fill="#292929"/>
<path d="M81.8523 49.5377V49.3991C81.8391 49.1023 81.8259 48.8055 81.7995 48.535C81.7731 48.0601 81.7336 47.5918 81.6742 47.0443C81.6214 46.5891 81.5687 46.1274 81.4961 45.7118C81.4236 45.2237 81.3444 44.729 81.2389 44.2871C81.0476 43.2712 80.7969 42.262 80.4935 41.2726V41.2462C80.3813 40.8966 80.2692 40.5536 80.1637 40.2436C79.946 39.5444 79.6953 38.8518 79.4051 38.179C79.293 37.9085 79.1808 37.6447 79.0621 37.3808L78.9764 37.1895C78.8246 36.8465 78.6795 36.5233 78.5278 36.2265C78.2838 35.6988 78.0133 35.1843 77.7297 34.6698C77.5582 34.3532 77.3735 34.03 77.1756 33.6936C76.8128 33.0933 76.4368 32.4864 76.041 31.9192C75.7772 31.5366 75.5068 31.154 75.2297 30.7912C74.359 29.6105 73.4092 28.4957 72.3802 27.4535C72.1229 27.1831 71.8656 26.9258 71.6348 26.7214C71.1664 26.2662 70.6915 25.8243 70.1968 25.4087C70.1572 25.3691 70.1176 25.3361 70.0781 25.3032C69.6163 24.9074 69.148 24.5314 68.6335 24.1423C68.528 24.0565 68.4158 23.9773 68.3037 23.9048C67.8354 23.542 67.3472 23.2056 66.8657 22.8824C66.78 22.823 66.6876 22.7702 66.5953 22.7175C66.2259 22.4602 65.8433 22.2227 65.4541 22.0051C65.1177 21.7874 64.7681 21.5961 64.3328 21.3652C63.8644 21.1212 63.3961 20.8705 62.9542 20.666C62.5848 20.4814 62.2286 20.3231 61.7339 20.0988C61.1138 19.8283 60.4872 19.5909 59.9001 19.3798C59.5439 19.2347 59.1745 19.1225 58.8381 19.017C58.3764 18.8653 57.9213 18.7202 57.4529 18.5948C57.3804 18.5684 57.3012 18.5421 57.2287 18.5289C56.8989 18.4365 56.5888 18.3574 56.2524 18.2914L56.2062 18.2782C55.8962 18.1925 55.573 18.1199 55.2564 18.0605C55.0849 18.0078 54.9068 17.9682 54.7221 17.9418C54.3923 17.8693 54.0493 17.8165 53.6733 17.7637C52.6443 17.5922 51.6021 17.4735 50.5599 17.4141C50.3488 17.4009 50.1245 17.3877 50.0124 17.3877C49.6694 17.3613 49.3396 17.3613 49.0823 17.3613C48.6866 17.335 48.2842 17.335 47.8884 17.3613C47.5454 17.3613 47.209 17.3613 46.9782 17.3877C46.7539 17.3877 46.5296 17.4009 46.3383 17.4141C45.2763 17.4735 44.2209 17.5922 43.1721 17.7703C42.8423 17.8165 42.4993 17.8693 42.1695 17.9418C42.031 17.955 41.8925 17.9814 41.7606 18.0276C41.3912 18.1001 41.035 18.1727 40.6788 18.2716L40.6326 18.2848C40.3226 18.3508 40.0192 18.4233 39.7091 18.5091C39.6366 18.5223 39.564 18.5421 39.4981 18.5685C39.0033 18.6938 38.5284 18.8455 38.0865 18.9972C37.7171 19.1093 37.3477 19.2215 37.0377 19.3534C36.411 19.5777 35.7778 19.8217 35.0456 20.145C34.6696 20.3165 34.3134 20.4747 33.9704 20.6528C33.5021 20.8771 33.0338 21.1212 32.4863 21.4114C32.1367 21.6027 31.7871 21.8006 31.5232 21.9589C31.1077 22.1898 30.6987 22.447 30.3029 22.7175C30.2172 22.7636 30.1315 22.8164 30.0457 22.8758C29.551 23.199 29.0629 23.542 28.5945 23.9048C28.4692 23.9839 28.3505 24.0763 28.2317 24.1686C27.7436 24.5248 27.2753 24.9074 26.8201 25.3032C26.7806 25.3361 26.741 25.3757 26.7014 25.4087C26.1407 25.8836 25.679 26.3058 25.2766 26.7082C25.0194 26.9456 24.7819 27.1897 24.5379 27.4338C23.5023 28.476 22.5458 29.5973 21.6685 30.778C21.3849 31.154 21.121 31.5234 20.8572 31.906C20.4548 32.4798 20.0788 33.0867 19.7028 33.7068C19.5181 34.0234 19.3335 34.3466 19.162 34.6566C18.8783 35.1711 18.6079 35.6856 18.377 36.1803C18.2121 36.5036 18.067 36.8333 17.9153 37.1763L17.8295 37.3676C17.7108 37.6315 17.5986 37.8953 17.4931 38.146C17.2161 38.7924 16.972 39.4587 16.7675 40.1381C16.629 40.4943 16.5103 40.8636 16.4113 41.233V41.2594C16.1013 42.2356 15.8572 43.2251 15.666 44.2277C15.5538 44.7158 15.4681 45.2105 15.4087 45.6591C15.3494 46.1076 15.2834 46.5693 15.2174 47.0905C15.1647 47.5654 15.1251 48.0403 15.0921 48.4822C15.0657 48.7791 15.0525 49.0759 15.0393 49.3728V49.5112C15.0261 49.9334 15.0129 50.349 15.0129 50.7711C15.0129 51.1933 15.0261 51.6088 15.0393 52.031V52.1761C15.0525 52.473 15.0657 52.7698 15.0921 53.0336C15.1185 53.5086 15.1581 53.9769 15.2174 54.5244C15.2702 54.9795 15.323 55.4412 15.3955 55.8568C15.4681 56.3383 15.5472 56.8397 15.6528 57.2816C15.8441 58.304 16.0947 59.3066 16.3981 60.3026V60.329C16.5037 60.6786 16.6158 61.0217 16.7214 61.3317C16.939 62.0309 17.1897 62.7234 17.4799 63.3963C17.5855 63.6667 17.7042 63.9306 17.8229 64.1944L17.9087 64.3857C18.0604 64.7287 18.2055 65.0519 18.3572 65.3487C18.6013 65.8764 18.8717 66.3909 19.1554 66.8988C19.3269 67.2155 19.5115 67.5387 19.7028 67.8619C20.1448 68.6073 20.5603 69.2471 20.9627 69.8012C22.0181 71.3381 23.2054 72.7827 24.5115 74.1085C24.7687 74.379 25.026 74.6362 25.2568 74.8407C25.7252 75.2958 26.2001 75.7378 26.6948 76.1533C26.7344 76.1929 26.774 76.2259 26.8135 76.2589C27.2753 76.6546 27.7436 77.0306 28.2581 77.4198C28.3637 77.5055 28.4758 77.5847 28.5879 77.6573C29.0629 78.0201 29.5444 78.3565 30.0259 78.6797C30.1116 78.7391 30.204 78.7918 30.2963 78.8446C30.6657 79.1019 31.0417 79.3393 31.4375 79.557C31.7739 79.7746 32.1235 79.9659 32.5589 80.1968C33.0272 80.4475 33.4955 80.6915 33.9375 80.896C34.3068 81.0807 34.663 81.2456 35.1578 81.4699C35.7778 81.7403 36.4044 81.9778 36.9915 82.1889C37.3477 82.334 37.7171 82.4461 38.0535 82.5517C38.5152 82.7034 38.9704 82.8485 39.4387 82.9738C39.5113 83.0002 39.5904 83.0266 39.663 83.0398C39.9928 83.1321 40.3028 83.2113 40.6392 83.2772L40.6854 83.2904C41.002 83.3762 41.3186 83.4488 41.6418 83.5015C41.8133 83.5543 41.9914 83.5939 42.1761 83.6202C42.5059 83.6928 42.8489 83.7456 43.2249 83.7984C44.2539 83.9699 45.2961 84.0886 46.3383 84.1479C46.5428 84.1611 46.7539 84.1677 46.9254 84.1743C47.4399 84.2007 47.9544 84.2139 48.4623 84.2139C48.9702 84.2139 49.4913 84.2007 49.9267 84.1743C50.1509 84.1743 50.3752 84.1611 50.5665 84.1479C51.6285 84.082 52.6773 83.9633 53.7261 83.7918C54.0559 83.7456 54.3989 83.6928 54.7287 83.6202C54.8672 83.6071 55.0057 83.5807 55.1377 83.5345C55.507 83.4619 55.8633 83.3894 56.2194 83.2904L56.2656 83.2772C56.5756 83.2179 56.8791 83.1387 57.1891 83.053C57.2616 83.0398 57.3342 83.02 57.4002 82.9936C57.8949 82.8683 58.3698 82.7165 58.8117 82.5648C59.1811 82.4527 59.5505 82.3406 59.8605 82.2086C60.4872 81.9844 61.1204 81.7403 61.8526 81.4237C62.2286 81.2522 62.5914 81.0873 62.9344 80.9158C63.4027 80.6915 63.871 80.4475 64.4251 80.1572C64.7747 79.966 65.1243 79.7681 65.3882 79.6097C65.8037 79.3789 66.2127 79.1282 66.6019 78.8512C66.6876 78.805 66.7734 78.7522 66.8591 78.6929C67.3538 78.3696 67.8354 78.0266 68.3103 77.6639C68.4356 77.5847 68.5543 77.499 68.6665 77.4066C69.1546 77.0504 69.6229 76.6678 70.0781 76.2721C70.1176 76.2391 70.1572 76.1995 70.1968 76.1665C70.6915 75.751 71.1665 75.309 71.5952 74.8935C71.615 74.8803 71.6282 74.8605 71.6414 74.8473H71.6546C71.9052 74.6098 72.1427 74.3724 72.3669 74.1415C73.673 72.8157 74.8537 71.3711 75.9091 69.8408C76.3247 69.2669 76.7402 68.6205 77.1888 67.8685C77.3735 67.5519 77.5582 67.2287 77.7297 66.9186C78.0133 66.4041 78.2837 65.8896 78.5146 65.3949C78.6795 65.0651 78.8246 64.7419 78.9764 64.3989L79.0621 64.2076C79.1808 63.9438 79.293 63.6799 79.3985 63.4293C79.6821 62.7631 79.9328 62.077 80.1505 61.3844C80.2692 61.0348 80.3813 60.6918 80.4869 60.3422V60.3158C80.7969 59.3396 81.041 58.3502 81.2323 57.3475C81.3444 56.8594 81.4301 56.3647 81.4895 55.9162C81.5489 55.4676 81.6214 55.0059 81.6808 54.4848C81.7336 54.0099 81.7731 53.5349 81.7995 53.093C81.8259 52.7962 81.8391 52.4993 81.8523 52.2025V52.0574C81.8655 51.6352 81.8787 51.2197 81.8787 50.7975C81.8787 50.3754 81.8919 49.9532 81.8787 49.5245L81.8523 49.5377ZM75.6321 50.8041L78.7785 45.1446C78.8444 45.4612 78.9038 45.7844 78.9566 46.1208C79.0225 46.5232 79.0687 46.9387 79.1281 47.4137C79.1742 47.8424 79.2138 48.2646 79.2402 48.7197C79.2666 48.9835 79.2732 49.2474 79.2864 49.6168C79.2996 50.0126 79.3128 50.4017 79.3128 50.8041C79.3128 51.2065 79.2996 51.5891 79.2864 52.0904C79.2732 52.3542 79.26 52.6181 79.2402 52.9149C79.2138 53.3437 79.1808 53.7658 79.1215 54.2605C79.0753 54.6629 79.0291 55.0784 78.9566 55.5204C78.9104 55.8238 78.851 56.1405 78.7851 56.4637L75.6387 50.8041H75.6321ZM73.1717 32.3347C73.4289 32.6777 73.6796 33.0273 73.9303 33.3901C74.2997 33.9178 74.6426 34.4719 74.9659 35.0062C75.1374 35.303 75.3155 35.6064 75.4804 35.9033C75.7376 36.365 75.9751 36.8268 76.2125 37.3347C76.3577 37.6249 76.4896 37.9151 76.6215 38.2185L76.7073 38.4164C76.8128 38.6539 76.9183 38.8914 77.0239 39.1486C77.2943 39.7885 77.512 40.3953 77.7165 41.0351C77.7693 41.1803 77.8088 41.332 77.8616 41.4837L73.4026 49.5046H62.0571L58.8447 43.7198L56.3448 39.2212L58.8447 34.7226L62.0571 28.9377H70.2166C70.3221 29.0432 70.4211 29.1356 70.5332 29.2477C71.4831 30.2108 72.3669 31.2398 73.1717 32.3281V32.3347ZM54.1153 61.0876H42.7698L39.5574 55.3027L37.0575 50.8041L39.5574 46.3055L42.7698 40.5206H54.1153L57.3276 46.3055L59.8276 50.8041L57.3276 55.3027L54.1087 61.0876H54.1153ZM60.7906 22.513C61.1336 22.6713 61.4634 22.8164 61.8262 23.0011C62.2616 23.2056 62.6969 23.4364 63.1916 23.7003C63.4819 23.8586 63.7787 24.0169 64.1349 24.2412C64.4977 24.4391 64.8473 24.6633 65.1837 24.9008C65.2365 24.9338 65.375 25.0262 65.4343 25.0525C65.8961 25.356 66.3446 25.6726 66.78 26.009C66.8327 26.0485 66.9647 26.1475 67.024 26.1805C67.0438 26.1937 67.1362 26.2662 67.1559 26.2794C67.2021 26.3124 67.2417 26.352 67.2813 26.3849H62.0571L59.6561 22.0578C60.0189 22.1964 60.3882 22.3415 60.784 22.5262L60.7906 22.513ZM41.3714 20.765C41.6616 20.6859 41.9453 20.6265 42.3674 20.5407C42.407 20.5275 42.4532 20.5143 42.4927 20.5143C42.5455 20.5143 42.5983 20.5011 42.651 20.4879C42.9413 20.422 43.2447 20.3824 43.6405 20.323C44.5837 20.1647 45.5402 20.0592 46.4966 19.9998C46.6483 19.9932 46.8132 19.9801 47.0837 19.9735C47.3541 19.9669 47.618 19.9536 47.9808 19.947C48.1325 19.9404 48.2974 19.9405 48.4425 19.9405C48.5876 19.9405 48.7525 19.9405 48.9966 19.9536C49.267 19.9536 49.5309 19.9537 49.9069 19.9801C50.0718 19.9801 50.2301 19.9932 50.3884 20.0064C51.3778 20.0658 52.3607 20.1779 53.3369 20.3428C53.6271 20.3824 53.9305 20.4286 54.2274 20.4945C54.2801 20.5077 54.3329 20.5143 54.3857 20.5209C54.4715 20.5341 54.5572 20.5539 54.6429 20.5803C54.9398 20.6397 55.23 20.6924 55.5202 20.7716L55.5598 20.7848C55.606 20.798 55.6588 20.8112 55.7049 20.8244C55.8303 20.8507 55.9622 20.8903 56.0941 20.9167L59.8342 27.6646L58.792 29.538L54.1153 37.9547H42.7698L38.0931 29.538L37.0509 27.6712L40.7909 20.9233C40.9162 20.8903 41.0482 20.8573 41.1801 20.831C41.2329 20.8244 41.279 20.8112 41.3252 20.7914L41.3648 20.7782L41.3714 20.765ZM29.927 26.1013C29.9863 26.0683 30.0391 26.0354 30.0919 25.9958C30.5272 25.6594 30.9758 25.3428 31.5232 24.9866C31.5826 24.9602 31.6354 24.9272 31.6882 24.8876C32.0509 24.6304 32.4269 24.3995 32.8161 24.1818C33.0997 23.9971 33.39 23.8454 33.7462 23.6541C34.1815 23.4232 34.6169 23.199 35.0786 22.9813C35.415 22.8098 35.7448 22.6647 36.1736 22.4668C36.51 22.3217 36.8662 22.1898 37.2158 22.0578L34.828 26.3718H29.5971C29.6565 26.3256 29.7093 26.286 29.7687 26.2465L29.9336 26.1079L29.927 26.1013ZM19.1817 41.0087C19.3664 40.4085 19.5907 39.8082 19.8677 39.142C19.9667 38.898 20.0722 38.6671 20.1778 38.4296L20.2635 38.2318C20.3888 37.9283 20.5274 37.6381 20.6923 37.3149C20.9099 36.8399 21.154 36.3782 21.4112 35.9099C21.5762 35.613 21.7477 35.3162 21.9126 35.0326C22.2424 34.4785 22.592 33.9244 22.968 33.3901C23.212 33.0339 23.4627 32.6843 23.7265 32.3281C24.5313 31.2464 25.4085 30.2174 26.3584 29.2543C26.4573 29.1554 26.5761 29.0432 26.6816 28.9377H34.8345L38.0469 34.7226L40.5469 39.2212L38.0469 43.7198L34.8345 49.5046H23.4891L19.0234 41.4705C19.0696 41.3254 19.1224 41.1737 19.1883 40.9956L19.1817 41.0087ZM18.1131 56.4571C18.0472 56.1405 17.9878 55.8172 17.9351 55.4808C17.8691 55.0784 17.8229 54.6629 17.7635 54.188C17.7174 53.7592 17.6778 53.337 17.6514 52.8819C17.6316 52.6246 17.6184 52.3542 17.6052 51.9848C17.5921 51.5891 17.5789 51.2065 17.5789 50.8041C17.5789 50.4017 17.5921 50.0192 17.6052 49.5178C17.6184 49.254 17.6316 48.9836 17.6514 48.6933C17.6778 48.2646 17.7108 47.8424 17.7701 47.3477C17.8163 46.9453 17.8625 46.5298 17.9351 46.0878C17.9812 45.7844 18.0406 45.4678 18.1066 45.1446L21.2529 50.8041L18.1066 56.4637L18.1131 56.4571ZM23.0603 68.3434C22.6909 67.8289 22.3149 67.255 21.9192 66.5822C21.7477 66.2854 21.5696 65.9886 21.4047 65.6852C21.1474 65.2234 20.9099 64.7617 20.6725 64.2538C20.5274 63.9636 20.3954 63.6733 20.2635 63.3699L20.1778 63.172C20.0722 62.9345 19.9667 62.6971 19.8612 62.4398C19.5907 61.8 19.373 61.1931 19.1751 60.5533C19.1224 60.4082 19.0828 60.2565 19.03 60.1048L23.4891 52.0904H34.8345L38.0469 57.8752L40.5469 62.3739L38.0469 66.8725L34.8345 72.6574H26.675C26.5695 72.5518 26.4705 72.4594 26.3584 72.3473C25.1447 71.1072 24.0431 69.7682 23.0603 68.3368V68.3434ZM36.101 79.1018C35.758 78.9435 35.4282 78.7984 35.0588 78.6137C34.6235 78.4092 34.1881 78.1784 33.6934 77.9211C33.4032 77.7628 33.1063 77.6045 32.7501 77.3802C32.3873 77.1823 32.0377 76.9581 31.7013 76.7206C31.6486 76.681 31.5101 76.6019 31.4441 76.5689C30.9824 76.2655 30.5338 75.9488 30.0985 75.6124C30.0457 75.5729 29.9072 75.4673 29.8544 75.4343C29.8346 75.4211 29.7489 75.3486 29.7291 75.342C29.6829 75.309 29.6433 75.2694 29.6037 75.2365H34.8345L37.2356 79.5636C36.886 79.425 36.5034 79.2733 36.1142 79.1018H36.101ZM55.5202 80.8366C55.23 80.9158 54.9464 80.9752 54.5242 81.0609C54.4846 81.0741 54.4385 81.0873 54.3923 81.0873C54.3395 81.0873 54.2868 81.1005 54.234 81.1137C53.9437 81.1797 53.6403 81.2258 53.2445 81.2786C52.3013 81.4369 51.3449 81.5424 50.3884 81.6018C50.2367 81.615 50.0718 81.6216 49.8409 81.6282C48.8845 81.681 47.9346 81.681 46.9782 81.6282C46.8132 81.6282 46.6549 81.615 46.4966 81.6018C45.5072 81.5424 44.5244 81.4303 43.5481 81.2654C43.2579 81.2258 42.9545 81.1797 42.6576 81.1137C42.6049 81.1005 42.5521 81.0939 42.4993 81.0873C42.4136 81.0741 42.3278 81.0543 42.2421 81.0279C41.9453 80.9686 41.655 80.9158 41.3648 80.8366L41.3252 80.8235C41.279 80.8103 41.2263 80.7971 41.1801 80.7839C41.0548 80.7575 40.9228 80.7179 40.7975 80.6915L37.0575 73.9436L38.0997 72.0703L42.7764 63.6535H54.1219L58.7986 72.0703L59.8408 73.937L56.1007 80.6849C55.9754 80.7179 55.8435 80.7509 55.7181 80.7773C55.6654 80.7839 55.6192 80.7971 55.573 80.8169L55.5334 80.8301L55.5202 80.8366ZM66.9515 75.5003C66.8921 75.5333 66.8393 75.5663 66.7932 75.6058C66.3578 75.9488 65.9093 76.2589 65.3684 76.6151C65.309 76.6415 65.2496 76.681 65.1969 76.714C64.8341 76.9712 64.4581 77.2021 64.0755 77.4198C63.7919 77.5979 63.5017 77.7562 63.1455 77.9475C62.7101 78.1784 62.2747 78.4092 61.813 78.6269C61.4766 78.7984 61.1468 78.9436 60.7181 79.1414C60.3817 79.2866 60.0255 79.4185 59.6758 79.5504L62.0637 75.2365H67.2945C67.2351 75.2826 67.1823 75.3222 67.123 75.3618L66.9515 75.5003ZM77.7099 60.5929C77.5252 61.1931 77.3009 61.7934 77.0305 62.4596C76.9315 62.7037 76.826 62.9345 76.7204 63.172L76.6347 63.3699C76.5094 63.6733 76.3708 63.9636 76.2059 64.2868C75.9883 64.7617 75.7442 65.2234 75.487 65.6918C75.3287 65.9886 75.1505 66.2854 74.9856 66.5822C74.5833 67.2616 74.2139 67.8355 73.8247 68.3764C72.8419 69.8012 71.7403 71.1402 70.5266 72.3737C70.4343 72.4727 70.3419 72.565 70.243 72.664H62.0703L58.8579 66.8791L56.358 62.3805L58.8579 57.8818L62.0703 52.097H73.4158L77.8682 60.118C77.822 60.2763 77.7758 60.428 77.7165 60.6061L77.7099 60.5929Z" fill="#292929"/>
</svg>
