<svg width="240" height="240" viewBox="0 0 240 240" fill="none" xmlns="http://www.w3.org/2000/svg">
<path d="M121.257 36C94.7095 36 72.5586 57.4429 72.5586 84.824C72.5586 95.2407 75.6826 104.531 81.6692 113.233L117.525 169.327C119.263 172.055 123.243 172.048 124.974 169.327L160.985 113.041C166.845 104.729 169.94 94.9785 169.94 84.824C169.94 57.9035 148.093 36 121.242 36H121.257ZM121.052 124.082C100.357 124.082 83.5846 107.266 83.5846 86.5176C83.5846 65.7692 100.357 48.9536 121.052 48.9536C141.747 48.9536 158.519 65.7692 158.519 86.5176C158.519 107.266 141.747 124.082 121.052 124.082Z" fill="#292929"/>
<path d="M151.755 96.077C151.649 96.4101 151.55 96.7502 151.437 97.0833C151.232 97.7565 150.984 98.4084 150.716 99.0532C150.589 99.3721 150.447 99.6839 150.306 100.01C150.164 100.329 150.023 100.641 149.868 100.952C149.634 101.455 149.38 101.944 149.111 102.433C148.942 102.745 148.765 103.05 148.581 103.362C148.207 103.992 147.811 104.623 147.373 105.232C146.355 106.713 145.21 108.109 143.952 109.392C143.718 109.626 143.492 109.853 143.245 110.086H133.816L127.392 98.4934L133.816 86.9004H146.666L151.755 96.0841V96.077Z" fill="white"/>
<path d="M143.252 110.08C142.793 110.534 142.312 110.966 141.824 111.384C141.796 111.412 141.789 111.434 141.761 111.448C141.322 111.823 140.884 112.185 140.425 112.518C140.319 112.61 140.206 112.688 140.093 112.766C139.633 113.127 139.153 113.46 138.665 113.786C138.594 113.836 138.523 113.878 138.446 113.914C138.071 114.183 137.682 114.424 137.28 114.651C136.961 114.856 136.622 115.033 136.29 115.218C135.831 115.466 135.364 115.707 134.905 115.926C134.523 116.118 134.148 116.288 133.746 116.465C133.152 116.72 132.551 116.954 131.95 117.173C131.632 117.301 131.293 117.407 130.961 117.506C130.501 117.662 130.035 117.804 129.561 117.932C129.533 117.946 129.505 117.96 129.469 117.96L133.823 110.087H143.252V110.08Z" fill="#292929"/>
<path d="M112.478 117.952C112.478 117.952 112.415 117.945 112.386 117.924C111.913 117.796 111.446 117.655 110.987 117.499C110.655 117.393 110.315 117.293 109.997 117.166C109.39 116.946 108.789 116.712 108.195 116.457C107.799 116.28 107.425 116.11 107.036 115.919C106.576 115.699 106.11 115.458 105.651 115.21C105.318 115.033 104.979 114.849 104.661 114.643C104.258 114.416 103.869 114.175 103.495 113.906C103.417 113.871 103.346 113.828 103.276 113.779C102.788 113.46 102.315 113.12 101.848 112.758C101.728 112.687 101.622 112.602 101.516 112.51C101.056 112.177 100.618 111.816 100.18 111.44C100.152 111.426 100.145 111.405 100.116 111.376C99.6287 110.965 99.1552 110.526 98.6887 110.073H108.117L112.471 117.945L112.478 117.952Z" fill="#292929"/>
<path d="M114.549 98.4864L108.124 110.079H98.6958C98.4484 109.846 98.2223 109.619 97.989 109.385C96.7309 108.102 95.5859 106.706 94.5681 105.225C94.1299 104.623 93.7341 103.985 93.3595 103.355C93.1828 103.043 92.9991 102.738 92.8294 102.426C92.5609 101.937 92.3064 101.448 92.0732 100.945C91.9177 100.633 91.7763 100.329 91.635 100.003C91.4936 99.6839 91.3522 99.3721 91.225 99.0462C90.9564 98.4013 90.709 97.7423 90.5041 97.0762C90.391 96.7432 90.285 96.403 90.186 96.07L95.2749 86.8862H108.124L114.549 98.4793V98.4864Z" fill="white"/>
<path d="M95.2749 86.8932L90.186 96.0769C88.4049 90.082 88.4049 83.6973 90.186 77.7095L95.2749 86.8932Z" fill="#292929"/>
<path d="M114.549 75.2937L108.124 86.8868H95.2749L90.186 77.703C91.7551 72.3742 94.6883 67.5485 98.6887 63.7007H108.117L114.542 75.2937H114.549Z" fill="white"/>
<path d="M133.816 86.8941L127.392 98.4871H114.542L108.117 86.8941L114.542 75.301H127.392L133.816 86.8941Z" fill="#292929"/>
<path d="M133.816 110.079L129.463 117.952C129.463 117.952 129.441 117.966 129.427 117.966C129.109 118.058 128.798 118.136 128.48 118.2C128.459 118.229 128.424 118.236 128.388 118.229C128.07 118.321 127.745 118.384 127.413 118.448C127.293 118.484 127.165 118.512 127.038 118.526C126.692 118.604 126.331 118.654 125.985 118.703C124.996 118.866 124.006 118.98 123.002 119.036C122.826 119.051 122.628 119.065 122.437 119.065C121.949 119.093 121.462 119.1 120.974 119.1C120.486 119.1 119.999 119.086 119.511 119.065C119.32 119.065 119.129 119.051 118.945 119.036C117.949 118.98 116.952 118.866 115.963 118.703C115.616 118.654 115.256 118.597 114.91 118.526C114.782 118.512 114.655 118.484 114.535 118.448C114.203 118.384 113.878 118.321 113.56 118.229C113.524 118.236 113.489 118.229 113.468 118.2C113.15 118.136 112.839 118.058 112.514 117.966C112.5 117.966 112.485 117.966 112.478 117.952L108.124 110.079L114.549 98.4863H127.399L133.823 110.079H133.816Z" fill="white"/>
<path d="M151.755 77.703L146.666 86.8868H133.816L127.392 75.2937L133.816 63.7007H143.245C147.245 67.5485 150.179 72.3742 151.748 77.703H151.755Z" fill="white"/>
<path d="M143.252 63.7002H133.823L129.469 55.8274C134.657 57.2375 139.4 59.9445 143.259 63.7002H143.252Z" fill="#292929"/>
<path d="M112.478 55.835L108.124 63.7077H98.6958C102.555 59.9591 107.297 57.2522 112.485 55.835H112.478Z" fill="#292929"/>
<path d="M133.816 63.7004L127.392 75.2935H114.542L108.117 63.7004L112.471 55.8277C118.034 54.297 123.9 54.297 129.455 55.8277L133.809 63.7004H133.816Z" fill="white"/>
<path d="M153.09 86.8932C153.09 90.004 152.645 93.1007 151.755 96.0769L146.666 86.8932L151.755 77.7095C152.645 80.6857 153.098 83.7824 153.09 86.8932Z" fill="#292929"/>
<path d="M154.349 85.6251V85.4834C154.334 85.1857 154.32 84.8881 154.299 84.6188C154.271 84.1441 154.236 83.6693 154.172 83.1236C154.122 82.6701 154.066 82.2095 153.995 81.7914C153.925 81.3025 153.84 80.8065 153.741 80.36C153.55 79.3396 153.303 78.3334 152.999 77.3413V77.32C152.886 76.9728 152.78 76.6256 152.674 76.3138C152.454 75.6123 152.207 74.9178 151.917 74.2446C151.811 73.9753 151.691 73.7132 151.578 73.4439L151.493 73.2526C151.345 72.9124 151.196 72.5864 151.048 72.2888C150.801 71.7574 150.532 71.2401 150.249 70.7299C150.073 70.411 149.889 70.085 149.698 69.752C149.337 69.1496 148.956 68.5402 148.56 67.9733C148.291 67.5907 148.03 67.208 147.747 66.8395C146.878 65.6561 145.924 64.5436 144.899 63.5019C144.644 63.2326 144.383 62.9705 144.157 62.772C143.69 62.3185 143.21 61.8721 142.722 61.4611C142.687 61.4257 142.644 61.3902 142.602 61.3548C142.142 60.958 141.676 60.5824 141.16 60.1927C141.054 60.1076 140.941 60.0297 140.828 59.9517C140.354 59.5903 139.873 59.2502 139.393 58.9313C139.308 58.8746 139.216 58.8179 139.124 58.7683C138.757 58.5061 138.375 58.2723 137.979 58.0526C137.647 57.833 137.294 57.6487 136.863 57.4078C136.396 57.1598 135.93 56.9117 135.484 56.7062C135.117 56.522 134.756 56.359 134.269 56.1323C133.654 55.863 133.025 55.6221 132.438 55.4095C132.085 55.2677 131.717 55.1544 131.378 55.0481C130.918 54.8922 130.459 54.7505 129.993 54.6229C129.922 54.5946 129.844 54.5733 129.766 54.5591C129.434 54.467 129.123 54.3891 128.791 54.3253H128.742C128.431 54.2261 128.112 54.1552 127.787 54.0985C127.611 54.0418 127.434 54.0064 127.257 53.9851C126.925 53.9143 126.579 53.8576 126.211 53.808C125.179 53.6379 124.14 53.5175 123.101 53.4537C122.896 53.4395 122.67 53.4253 122.557 53.4324C122.211 53.4041 121.886 53.4041 121.624 53.4041C121.228 53.3757 120.825 53.3757 120.43 53.4041C120.083 53.4041 119.751 53.4041 119.518 53.4324C119.299 53.4324 119.073 53.4466 118.875 53.4608C117.815 53.5245 116.761 53.6379 115.715 53.8151C115.383 53.8647 115.044 53.9143 114.712 53.9851C114.57 53.9993 114.436 54.0277 114.302 54.0702C113.934 54.141 113.574 54.2119 113.22 54.3111L113.178 54.3253C112.867 54.3891 112.563 54.4599 112.252 54.552C112.181 54.5662 112.111 54.5875 112.04 54.6158C111.545 54.7434 111.072 54.8922 110.626 55.0481C110.259 55.1615 109.891 55.2748 109.573 55.4024C108.944 55.6291 108.315 55.8701 107.58 56.189C107.206 56.359 106.845 56.522 106.506 56.6921C106.039 56.9117 105.573 57.1598 105.022 57.4503C104.675 57.6416 104.322 57.84 104.06 58.003C103.643 58.2369 103.233 58.492 102.845 58.7612C102.76 58.8109 102.668 58.8605 102.59 58.9171C102.095 59.2431 101.608 59.5832 101.141 59.9446C101.014 60.0297 100.894 60.1147 100.781 60.2068C100.293 60.5611 99.8267 60.9438 99.3673 61.3406C99.3249 61.3761 99.2895 61.4115 99.2542 61.4469C98.6958 61.9217 98.2293 62.3469 97.8264 62.7508C97.572 62.9917 97.3317 63.2326 97.0914 63.4807C96.0595 64.5294 95.1053 65.649 94.2289 66.8324C93.9462 67.208 93.6776 67.5836 93.4231 67.9592C93.0203 68.5331 92.6457 69.1425 92.264 69.759C92.0802 70.0779 91.8894 70.4039 91.7198 70.7086C91.4371 71.2259 91.1614 71.7361 90.9352 72.2392C90.7727 72.5652 90.6243 72.8912 90.4758 73.2384L90.391 73.4297C90.2709 73.699 90.1578 73.9612 90.0588 74.2092C89.7832 74.8611 89.5358 75.5272 89.3308 76.2004C89.1895 76.5618 89.0764 76.9232 88.9774 77.2988V77.3271C88.6735 78.305 88.4261 79.2971 88.2353 80.3033C88.1222 80.7923 88.0374 81.2883 87.9808 81.7418C87.9243 82.1954 87.8536 82.656 87.79 83.1803C87.7335 83.6551 87.6981 84.1299 87.6698 84.5763C87.6486 84.8739 87.6345 85.1716 87.6204 85.4692V85.6109C87.6062 86.0361 87.5921 86.4471 87.5921 86.8723C87.5921 87.2974 87.6062 87.7084 87.6204 88.1336V88.2753C87.6345 88.5729 87.6486 88.8706 87.6698 89.1328C87.6981 89.6075 87.7334 90.0823 87.7971 90.6279C87.8465 91.0815 87.9031 91.5421 87.9738 91.9602C88.0444 92.442 88.1293 92.9451 88.2282 93.3916C88.4191 94.412 88.6664 95.4253 88.9704 96.4174V96.4386C89.0764 96.7859 89.1824 97.1331 89.2884 97.4449C89.5075 98.1464 89.7549 98.8409 90.0447 99.5141C90.1507 99.7833 90.2709 100.046 90.3839 100.315L90.4688 100.506C90.6172 100.846 90.7656 101.172 90.914 101.47C91.1614 102.001 91.43 102.519 91.7127 103.029C91.8894 103.348 92.0732 103.674 92.264 103.993C92.7022 104.737 93.1192 105.381 93.5221 105.934C94.5752 107.472 95.7626 108.917 97.0631 110.25C97.3176 110.519 97.5791 110.781 97.8053 110.98C98.2717 111.433 98.7523 111.879 99.24 112.29C99.2754 112.326 99.3178 112.361 99.3602 112.397C99.8196 112.794 100.286 113.169 100.802 113.559C100.908 113.644 101.021 113.722 101.134 113.8C101.608 114.161 102.088 114.501 102.576 114.82C102.661 114.877 102.753 114.934 102.845 114.983C103.212 115.245 103.594 115.479 103.983 115.699C104.315 115.919 104.668 116.103 105.099 116.344C105.566 116.592 106.032 116.84 106.478 117.045C106.845 117.23 107.206 117.393 107.693 117.619C108.308 117.889 108.937 118.13 109.524 118.342C109.877 118.484 110.245 118.597 110.584 118.704C111.043 118.859 111.503 119.001 111.969 119.129C112.04 119.157 112.118 119.178 112.196 119.192C112.528 119.285 112.839 119.363 113.171 119.426L113.213 119.44C113.531 119.526 113.849 119.596 114.167 119.653C114.344 119.71 114.521 119.745 114.698 119.766C115.03 119.837 115.376 119.894 115.744 119.944C116.776 120.114 117.807 120.234 118.853 120.298C119.058 120.312 119.271 120.319 119.44 120.326C119.956 120.355 120.465 120.369 120.974 120.369C121.483 120.369 121.999 120.355 122.437 120.333C122.656 120.333 122.882 120.319 123.08 120.305C124.14 120.241 125.193 120.121 126.239 119.951C126.572 119.901 126.911 119.851 127.243 119.781C127.384 119.766 127.519 119.738 127.653 119.696C128.021 119.625 128.374 119.554 128.734 119.455L128.777 119.44C129.088 119.377 129.392 119.306 129.703 119.214C129.773 119.2 129.844 119.178 129.915 119.15C130.41 119.022 130.883 118.874 131.328 118.718C131.696 118.604 132.063 118.491 132.382 118.363C133.011 118.137 133.64 117.896 134.368 117.577C134.742 117.407 135.103 117.244 135.449 117.067C135.915 116.847 136.382 116.599 136.933 116.308C137.28 116.117 137.633 115.919 137.894 115.756C138.311 115.522 138.714 115.274 139.11 114.997C139.202 114.948 139.287 114.898 139.365 114.842C139.859 114.516 140.34 114.175 140.814 113.814C140.941 113.736 141.054 113.651 141.174 113.559C141.662 113.205 142.128 112.822 142.588 112.425C142.63 112.39 142.665 112.354 142.701 112.319C143.195 111.901 143.669 111.461 144.1 111.043C144.114 111.029 144.128 111.015 144.15 110.994H144.157C144.404 110.76 144.644 110.519 144.871 110.285C146.171 108.953 147.358 107.514 148.412 105.977C148.829 105.403 149.246 104.758 149.691 104C149.875 103.681 150.065 103.355 150.235 103.05C150.518 102.533 150.793 102.023 151.02 101.519C151.182 101.193 151.331 100.868 151.479 100.52L151.564 100.329C151.684 100.06 151.797 99.7975 151.896 99.5495C152.179 98.8763 152.433 98.196 152.645 97.5016C152.765 97.1543 152.871 96.8071 152.977 96.4599V96.4316C153.281 95.4537 153.529 94.4616 153.72 93.4553C153.833 92.9664 153.917 92.4704 153.974 92.0168C154.038 91.5633 154.101 91.1027 154.165 90.5783C154.221 90.1036 154.264 89.6288 154.285 89.1824C154.306 88.8847 154.32 88.5871 154.334 88.2966V88.1549C154.349 87.7297 154.363 87.3187 154.363 86.8935C154.363 86.4683 154.377 86.0432 154.363 85.618L154.349 85.6251ZM148.136 86.8935L151.281 81.2245C151.345 81.5434 151.408 81.8694 151.458 82.2024C151.521 82.6063 151.571 83.0244 151.627 83.4992C151.677 83.9244 151.712 84.3566 151.741 84.8102C151.762 85.0724 151.776 85.3416 151.79 85.7101C151.804 86.1069 151.811 86.4967 151.811 86.8935C151.811 87.2903 151.797 87.6801 151.783 88.1832C151.769 88.4454 151.762 88.7147 151.733 89.0052C151.712 89.4304 151.67 89.8626 151.613 90.3587C151.564 90.7626 151.521 91.1807 151.444 91.62C151.401 91.9247 151.338 92.2436 151.274 92.5625L148.136 86.8935ZM145.676 68.3914C145.931 68.7386 146.185 69.0859 146.433 69.4543C146.8 69.9858 147.146 70.5385 147.472 71.0771C147.641 71.3747 147.818 71.6794 147.987 71.977C148.242 72.4376 148.482 72.9053 148.723 73.4084C148.871 73.699 148.998 73.9895 149.132 74.2942L149.217 74.4926C149.323 74.7336 149.429 74.9674 149.535 75.2296C149.804 75.8745 150.023 76.4839 150.221 77.1216C150.27 77.2704 150.313 77.4192 150.362 77.5681L145.91 85.6038H134.573L131.364 79.8073L128.862 75.3005L131.357 70.7936L134.566 64.9971H142.715C142.821 65.1034 142.92 65.1955 143.033 65.3089C143.98 66.2726 144.863 67.3072 145.669 68.3985L145.676 68.3914ZM126.635 97.1969H115.298L112.09 91.4003L109.587 86.8935L112.082 82.3867L115.291 76.5902H126.628L129.837 82.3867L132.339 86.8935L129.844 91.4003L126.628 97.1969H126.635ZM133.307 58.5487C133.654 58.7046 133.979 58.8534 134.346 59.0376C134.785 59.2431 135.216 59.4699 135.711 59.7391C136 59.895 136.297 60.058 136.651 60.2777C137.011 60.4761 137.364 60.6958 137.704 60.9367C137.753 60.9721 137.894 61.0572 137.951 61.0855C138.41 61.3902 138.856 61.702 139.294 62.0422C139.343 62.0847 139.478 62.1839 139.534 62.2122C139.548 62.2264 139.64 62.2973 139.661 62.3114C139.704 62.3469 139.746 62.3823 139.789 62.4177H134.573L132.177 58.081C132.537 58.2227 132.912 58.3715 133.3 58.5487H133.307ZM113.906 56.7984C114.196 56.7204 114.478 56.6637 114.903 56.5716C114.945 56.5574 114.987 56.5503 115.03 56.5433C115.079 56.5433 115.136 56.5291 115.185 56.5149C115.475 56.4511 115.779 56.4086 116.175 56.3448C117.122 56.189 118.069 56.0827 119.03 56.026C119.186 56.0189 119.341 56.0047 119.617 55.9976C119.892 55.9905 120.147 55.9764 120.514 55.9764C120.663 55.9693 120.833 55.9693 120.974 55.9693C121.115 55.9693 121.285 55.9693 121.525 55.9835C121.794 55.9835 122.055 55.9835 122.437 56.0118C122.6 56.0118 122.762 56.026 122.918 56.0331C123.907 56.0897 124.89 56.2031 125.865 56.3661C126.155 56.4086 126.459 56.4511 126.755 56.5149C126.805 56.5291 126.861 56.5362 126.911 56.5433C126.996 56.5574 127.081 56.5787 127.165 56.607C127.462 56.6637 127.752 56.7204 128.042 56.7984H128.084C128.134 56.8267 128.183 56.8409 128.233 56.848C128.36 56.8763 128.487 56.9117 128.621 56.9401L132.353 63.7003L131.314 65.5782L126.642 74.0108H115.305L110.634 65.5782L109.595 63.7074L113.333 56.9543C113.461 56.9259 113.588 56.8834 113.722 56.8621C113.772 56.8551 113.821 56.8409 113.871 56.8267L113.913 56.8125L113.906 56.7984ZM102.47 62.1485C102.527 62.113 102.583 62.0776 102.633 62.0422C103.071 61.702 103.516 61.3902 104.067 61.0288C104.124 61.0005 104.18 60.9651 104.23 60.9296C104.59 60.6745 104.965 60.4407 105.354 60.2281C105.637 60.0439 105.933 59.888 106.287 59.6966C106.725 59.4699 107.156 59.236 107.616 59.0164C107.955 58.8463 108.28 58.6975 108.711 58.4991C109.043 58.3502 109.404 58.2227 109.757 58.0881L107.375 62.4106H102.145C102.202 62.3681 102.251 62.3256 102.315 62.2831L102.477 62.1485H102.47ZM91.7339 77.0791C91.9177 76.4768 92.1368 75.8745 92.4195 75.2083C92.5185 74.9674 92.6245 74.7336 92.7305 74.4926L92.8153 74.2942C92.9425 73.9895 93.0768 73.699 93.2394 73.373C93.4585 72.8982 93.6988 72.4376 93.9603 71.9699C94.1229 71.6723 94.2925 71.3747 94.4621 71.0913C94.7943 70.5385 95.1407 69.9858 95.5153 69.4473C95.7626 69.0859 96.01 68.7386 96.2715 68.3843C97.0773 67.3001 97.9537 66.2726 98.9008 65.3089C98.9997 65.2097 99.1199 65.0963 99.2259 64.99H107.375L110.584 70.7866L113.086 75.2934L110.591 79.8002L107.382 85.5967H96.0453L91.5855 77.5468C91.635 77.398 91.6844 77.2492 91.748 77.072L91.7339 77.0791ZM90.6596 92.5554C90.596 92.2365 90.5324 91.9105 90.4829 91.5775C90.4193 91.1736 90.3698 90.7555 90.3132 90.2807C90.2638 89.8555 90.2284 89.4233 90.2002 88.9698C90.179 88.7147 90.1648 88.4383 90.1507 88.0698C90.1365 87.673 90.1295 87.2903 90.1295 86.8864C90.1295 86.4825 90.1436 86.0999 90.1578 85.5967C90.1719 85.3275 90.179 85.0653 90.2072 84.7676C90.2284 84.3425 90.2708 83.9102 90.3274 83.4142C90.3769 83.0103 90.4193 82.5922 90.497 82.1528C90.5394 81.8552 90.603 81.5292 90.6666 81.2104L93.8048 86.8793L90.6596 92.5483V92.5554ZM95.6071 104.467C95.2396 103.95 94.865 103.376 94.4692 102.703C94.2925 102.405 94.1229 102.108 93.9532 101.803C93.6988 101.342 93.4585 100.875 93.2182 100.371C93.0698 100.081 92.9425 99.7904 92.8082 99.4857L92.7234 99.2873C92.6174 99.0464 92.5114 98.8125 92.4054 98.5503C92.1368 97.9055 91.9177 97.2961 91.7198 96.6583C91.6703 96.5095 91.6208 96.3607 91.5784 96.2119L96.0312 88.1832H107.368L110.577 93.9797L113.079 98.4866L110.584 102.993L107.375 108.79H99.2259C99.1199 108.684 99.0209 108.591 98.9149 108.478C97.7063 107.238 96.6037 105.892 95.6212 104.46L95.6071 104.467ZM108.633 115.238C108.287 115.082 107.962 114.934 107.594 114.749C107.156 114.544 106.725 114.317 106.23 114.055C105.94 113.899 105.644 113.736 105.29 113.516C104.93 113.318 104.576 113.098 104.244 112.857C104.188 112.822 104.053 112.737 103.99 112.709C103.53 112.404 103.085 112.092 102.647 111.752C102.597 111.717 102.456 111.61 102.399 111.575C102.385 111.561 102.293 111.49 102.272 111.483C102.23 111.447 102.187 111.412 102.145 111.376H107.368L109.764 115.713C109.411 115.571 109.036 115.423 108.64 115.253L108.633 115.238ZM128.035 116.982C127.745 117.06 127.462 117.116 127.038 117.208C126.996 117.222 126.953 117.23 126.911 117.237C126.861 117.237 126.805 117.251 126.755 117.258C126.466 117.322 126.162 117.364 125.766 117.428C124.819 117.584 123.872 117.69 122.911 117.747C122.762 117.754 122.6 117.768 122.366 117.768C121.412 117.818 120.458 117.818 119.504 117.768C119.341 117.768 119.179 117.754 119.023 117.747C118.034 117.69 117.051 117.577 116.076 117.414C115.786 117.371 115.482 117.329 115.185 117.265C115.136 117.251 115.079 117.244 115.03 117.237C114.945 117.222 114.86 117.201 114.775 117.173C114.478 117.116 114.189 117.06 113.899 116.982H113.857C113.807 116.953 113.758 116.939 113.708 116.932C113.581 116.904 113.454 116.868 113.326 116.84L109.587 110.08L110.626 108.209L115.298 99.7762H126.635L131.307 108.209L132.346 110.08L128.607 116.84C128.48 116.868 128.353 116.911 128.226 116.932C128.176 116.939 128.127 116.953 128.077 116.967L128.035 116.982ZM139.464 111.631C139.407 111.66 139.351 111.695 139.301 111.738C138.863 112.078 138.418 112.397 137.873 112.744C137.817 112.772 137.76 112.808 137.704 112.843C137.343 113.098 136.969 113.332 136.58 113.545C136.297 113.729 136 113.885 135.647 114.076C135.216 114.31 134.778 114.537 134.318 114.756C133.979 114.927 133.647 115.075 133.23 115.274C132.897 115.423 132.537 115.55 132.184 115.685L134.573 111.362H139.803C139.746 111.405 139.697 111.447 139.633 111.49L139.464 111.631ZM150.207 96.7008C150.023 97.3032 149.804 97.9055 149.528 98.5716C149.429 98.8125 149.323 99.0464 149.217 99.2873L149.132 99.4857C149.005 99.7904 148.871 100.081 148.708 100.407C148.489 100.882 148.249 101.342 147.987 101.81C147.825 102.108 147.655 102.405 147.486 102.696C147.083 103.376 146.715 103.95 146.326 104.489C145.344 105.913 144.241 107.259 143.033 108.492C142.941 108.591 142.842 108.684 142.75 108.783H134.58L131.371 102.986L128.869 98.4795L131.364 93.9726L134.573 88.1761H145.91L150.362 96.2119C150.313 96.3749 150.263 96.5237 150.207 96.7008Z" fill="#292929"/>
<path d="M162.406 132.188L149.705 148.77C149.429 149.132 149.309 149.578 149.352 150.031C149.486 151.3 149.571 152.597 149.571 153.936C149.571 162.935 146.8 170.426 141.266 176.399C135.732 182.38 128.713 185.363 120.203 185.363C111.694 185.363 104.428 182.394 98.9149 176.463C93.4019 170.525 90.6454 163.02 90.6454 153.936C90.6454 151.881 90.8009 149.904 91.0978 148.005C91.1755 147.523 91.0553 147.041 90.7585 146.658L78.5522 130.707C77.7677 129.687 76.1915 129.807 75.5837 130.941C74.8981 132.217 74.2761 133.535 73.7177 134.881C71.2369 140.819 70 147.169 70 153.943C70 161.483 71.5691 168.534 74.7143 175.088C77.8525 181.643 82.376 187.284 88.2777 191.996C92.8506 195.638 97.883 198.437 103.375 200.386C108.867 202.335 114.478 203.313 120.203 203.313C126.741 203.313 133.067 202.073 139.181 199.585C145.295 197.098 150.786 193.52 155.656 188.85C160.356 184.307 163.961 179.035 166.456 173.033C168.958 167.031 170.209 160.668 170.209 153.943C170.209 147.218 168.972 140.876 166.491 134.917C166.152 134.095 165.784 133.287 165.396 132.486C164.816 131.303 163.198 131.147 162.399 132.195L162.406 132.188Z" fill="#292929"/>
</svg>
