<svg width="150" height="78" viewBox="0 0 150 78" fill="none" xmlns="http://www.w3.org/2000/svg">
<g clip-path="url(#clip0_1315_807)">
<path d="M110.237 0C103.404 0 97.7031 5.5188 97.7031 12.5659C97.7031 15.2469 98.5072 17.6379 100.048 19.8775L109.276 34.3147C109.724 35.0168 110.748 35.015 111.193 34.3147L120.462 19.8283C121.97 17.689 122.766 15.1794 122.766 12.5659C122.766 5.63735 117.144 0 110.233 0H110.237ZM110.184 22.6698C104.858 22.6698 100.541 18.3419 100.541 13.0018C100.541 7.66176 104.858 3.33389 110.184 3.33389C115.51 3.33389 119.827 7.66176 119.827 13.0018C119.827 18.3419 115.51 22.6698 110.184 22.6698Z" fill="#292929"/>
<path d="M118.086 15.4622C118.059 15.5479 118.033 15.6354 118.004 15.7211C117.951 15.8944 117.888 16.0622 117.819 16.2281C117.786 16.3102 117.749 16.3905 117.713 16.4744C117.677 16.5564 117.64 16.6367 117.6 16.7169C117.54 16.8464 117.475 16.9723 117.406 17.0981C117.362 17.1783 117.317 17.2568 117.269 17.337C117.173 17.4993 117.071 17.6616 116.958 17.8185C116.696 18.1997 116.402 18.559 116.078 18.8891C116.018 18.9492 115.959 19.0076 115.896 19.0678H113.469L111.816 16.0841L113.469 13.1003H116.776L118.086 15.464V15.4622Z" fill="white"/>
<path d="M115.898 19.0662C115.779 19.1829 115.656 19.2941 115.53 19.4017C115.523 19.409 115.521 19.4145 115.514 19.4182C115.401 19.5148 115.288 19.6078 115.17 19.6935C115.143 19.7173 115.114 19.7373 115.084 19.7574C114.966 19.8504 114.843 19.9361 114.717 20.02C114.699 20.0328 114.681 20.0437 114.661 20.0528C114.564 20.1221 114.464 20.1841 114.36 20.2425C114.279 20.2954 114.191 20.341 114.106 20.3884C113.988 20.4522 113.868 20.5143 113.749 20.5708C113.651 20.62 113.555 20.6638 113.451 20.7094C113.298 20.7751 113.144 20.8352 112.989 20.8918C112.907 20.9246 112.82 20.952 112.734 20.9775C112.616 21.0176 112.496 21.0541 112.374 21.0869C112.367 21.0906 112.359 21.0942 112.35 21.0942L113.471 19.068H115.898V19.0662Z" fill="#292929"/>
<path d="M107.977 21.0923C107.977 21.0923 107.961 21.0904 107.954 21.085C107.832 21.0521 107.712 21.0157 107.593 20.9755C107.508 20.9482 107.421 20.9227 107.339 20.8898C107.182 20.8333 107.028 20.7731 106.875 20.7074C106.773 20.6619 106.677 20.6181 106.577 20.5688C106.458 20.5123 106.338 20.4503 106.22 20.3865C106.135 20.3409 106.047 20.2934 105.965 20.2406C105.862 20.1822 105.762 20.1202 105.665 20.0509C105.645 20.0418 105.627 20.0308 105.609 20.0181C105.483 19.936 105.361 19.8484 105.241 19.7554C105.21 19.7372 105.183 19.7153 105.156 19.6916C105.038 19.6059 104.925 19.5129 104.812 19.4162C104.805 19.4126 104.803 19.4071 104.796 19.3998C104.67 19.294 104.548 19.1809 104.428 19.0642H106.855L107.976 21.0904L107.977 21.0923Z" fill="#292929"/>
<path d="M108.51 16.0822L106.857 19.066H104.43C104.366 19.0058 104.308 18.9474 104.248 18.8872C103.924 18.5571 103.63 18.1978 103.368 17.8167C103.255 17.6616 103.153 17.4975 103.057 17.3352C103.011 17.2549 102.964 17.1765 102.92 17.0963C102.851 16.9704 102.786 16.8446 102.726 16.7151C102.686 16.6348 102.649 16.5564 102.613 16.4725C102.576 16.3905 102.54 16.3102 102.507 16.2263C102.438 16.0603 102.375 15.8907 102.322 15.7193C102.293 15.6336 102.265 15.546 102.24 15.4603L103.55 13.0967H106.857L108.51 16.0804V16.0822Z" fill="white"/>
<path d="M103.55 13.0985L102.24 15.4621C101.782 13.9192 101.782 12.276 102.24 10.7349L103.55 13.0985Z" fill="#292929"/>
<path d="M108.51 10.1131L106.857 13.0968H103.55L102.24 10.7332C102.644 9.36172 103.399 8.11971 104.428 7.12939H106.855L108.509 10.1131H108.51Z" fill="white"/>
<path d="M113.469 13.0987L111.816 16.0824H108.508L106.855 13.0987L108.508 10.115H111.816L113.469 13.0987Z" fill="#292929"/>
<path d="M113.469 19.066L112.349 21.0922C112.349 21.0922 112.343 21.0959 112.339 21.0959C112.258 21.1196 112.178 21.1397 112.096 21.1561C112.09 21.1634 112.081 21.1652 112.072 21.1634C111.99 21.1871 111.907 21.2035 111.821 21.2199C111.79 21.229 111.757 21.2363 111.725 21.24C111.635 21.26 111.543 21.2728 111.454 21.2856C111.199 21.3275 110.944 21.3567 110.686 21.3713C110.64 21.3749 110.59 21.3786 110.54 21.3786C110.415 21.3859 110.289 21.3877 110.164 21.3877C110.038 21.3877 109.913 21.384 109.787 21.3786C109.738 21.3786 109.689 21.3749 109.642 21.3713C109.385 21.3567 109.129 21.3275 108.874 21.2856C108.785 21.2728 108.692 21.2582 108.603 21.24C108.57 21.2363 108.538 21.229 108.507 21.2199C108.421 21.2035 108.337 21.1871 108.256 21.1634C108.247 21.1652 108.237 21.1634 108.232 21.1561C108.15 21.1397 108.07 21.1196 107.986 21.0959C107.983 21.0959 107.979 21.0959 107.977 21.0922L106.857 19.066L108.51 16.0823H111.817L113.471 19.066H113.469Z" fill="white"/>
<path d="M118.086 10.7332L116.776 13.0968H113.469L111.816 10.1131L113.469 7.12939H115.896C116.925 8.11971 117.68 9.36172 118.084 10.7332H118.086Z" fill="white"/>
<path d="M115.898 7.12926H113.471L112.35 5.10303C113.686 5.46596 114.906 6.16265 115.899 7.12926H115.898Z" fill="#292929"/>
<path d="M107.977 5.10498L106.857 7.13121H104.43C105.423 6.16643 106.644 5.46974 107.979 5.10498H107.977Z" fill="#292929"/>
<path d="M113.469 7.12931L111.816 10.113H108.508L106.855 7.12931L107.975 5.10307C109.407 4.70913 110.917 4.70913 112.347 5.10307L113.467 7.12931H113.469Z" fill="white"/>
<path d="M118.43 13.0985C118.43 13.8991 118.315 14.6961 118.086 15.4621L116.776 13.0985L118.086 10.7349C118.315 11.5009 118.432 12.2979 118.43 13.0985Z" fill="#292929"/>
<path d="M118.754 12.7721V12.7357C118.75 12.6591 118.746 12.5825 118.741 12.5132C118.734 12.391 118.724 12.2688 118.708 12.1283C118.695 12.0116 118.681 11.8931 118.663 11.7855C118.644 11.6596 118.623 11.532 118.597 11.4171C118.548 11.1544 118.484 10.8955 118.406 10.6401V10.6347C118.377 10.5453 118.35 10.4559 118.322 10.3757C118.266 10.1951 118.202 10.0164 118.128 9.84313C118.101 9.77382 118.07 9.70634 118.041 9.63704L118.019 9.58779C117.98 9.50025 117.942 9.41636 117.904 9.33976C117.84 9.20297 117.771 9.06984 117.699 8.93852C117.653 8.85645 117.606 8.77256 117.557 8.68684C117.464 8.53182 117.366 8.37497 117.264 8.22907C117.195 8.13058 117.127 8.0321 117.055 7.93726C116.831 7.63269 116.585 7.34635 116.321 7.07825C116.256 7.00895 116.189 6.94147 116.13 6.8904C116.01 6.77368 115.887 6.65878 115.761 6.553C115.752 6.54388 115.741 6.53476 115.73 6.52564C115.612 6.42351 115.492 6.32685 115.359 6.22654C115.332 6.20466 115.303 6.1846 115.274 6.16453C115.152 6.07152 115.028 5.98398 114.904 5.90191C114.883 5.88732 114.859 5.87273 114.835 5.85996C114.741 5.79248 114.642 5.73229 114.541 5.67576C114.455 5.61922 114.364 5.5718 114.253 5.50979C114.133 5.44596 114.013 5.38213 113.898 5.32924C113.804 5.28182 113.711 5.23987 113.586 5.18151C113.427 5.1122 113.265 5.0502 113.114 4.99548C113.023 4.95901 112.929 4.92983 112.842 4.90247C112.723 4.86234 112.605 4.82587 112.485 4.79304C112.467 4.78575 112.447 4.78027 112.427 4.77663C112.341 4.75292 112.261 4.73286 112.176 4.71644H112.163C112.083 4.69091 112.001 4.67267 111.917 4.65808C111.872 4.64349 111.827 4.63437 111.781 4.6289C111.696 4.61066 111.606 4.59607 111.512 4.5833C111.246 4.53953 110.979 4.50853 110.711 4.49211C110.659 4.48847 110.6 4.48482 110.571 4.48664C110.482 4.47935 110.399 4.47935 110.331 4.47935C110.229 4.47205 110.126 4.47205 110.024 4.47935C109.935 4.47935 109.849 4.47935 109.789 4.48664C109.733 4.48664 109.675 4.49029 109.624 4.49394C109.351 4.51035 109.08 4.53953 108.81 4.58513C108.725 4.59789 108.638 4.61066 108.552 4.6289C108.516 4.63255 108.481 4.63984 108.447 4.65079C108.352 4.66902 108.259 4.68726 108.168 4.71279L108.157 4.71644C108.077 4.73286 107.999 4.75109 107.919 4.7748C107.901 4.77845 107.883 4.78392 107.865 4.79122C107.737 4.82405 107.615 4.86234 107.501 4.90247C107.406 4.93165 107.312 4.96083 107.23 4.99366C107.068 5.05202 106.906 5.11403 106.717 5.1961C106.62 5.23987 106.528 5.28182 106.44 5.32559C106.32 5.38213 106.2 5.44596 106.058 5.52073C105.969 5.56998 105.878 5.62104 105.811 5.66299C105.703 5.72318 105.598 5.78883 105.498 5.85814C105.476 5.8709 105.452 5.88367 105.432 5.89826C105.305 5.98215 105.18 6.0697 105.06 6.16271C105.027 6.1846 104.996 6.20648 104.967 6.23019C104.841 6.32138 104.721 6.41986 104.603 6.522C104.592 6.53112 104.583 6.54024 104.574 6.54935C104.43 6.67155 104.31 6.78098 104.206 6.88493C104.141 6.94694 104.079 7.00895 104.017 7.07278C103.752 7.3427 103.506 7.63086 103.28 7.93544C103.208 8.0321 103.139 8.12876 103.073 8.22542C102.969 8.37315 102.873 8.52999 102.775 8.68866C102.727 8.77073 102.678 8.85463 102.635 8.93305C102.562 9.06619 102.491 9.1975 102.433 9.32699C102.391 9.41089 102.353 9.49478 102.315 9.58415L102.293 9.63339C102.262 9.70269 102.233 9.77017 102.207 9.83401C102.136 10.0018 102.073 10.1732 102.02 10.3465C101.983 10.4395 101.954 10.5325 101.929 10.6292V10.6365C101.851 10.8882 101.787 11.1435 101.738 11.4025C101.709 11.5283 101.687 11.656 101.672 11.7727C101.658 11.8894 101.64 12.008 101.623 12.1429C101.609 12.2651 101.6 12.3873 101.592 12.5022C101.587 12.5788 101.583 12.6554 101.58 12.732V12.7685C101.576 12.8779 101.572 12.9837 101.572 13.0931C101.572 13.2026 101.576 13.3083 101.58 13.4178V13.4542C101.583 13.5308 101.587 13.6074 101.592 13.6749C101.6 13.7971 101.609 13.9193 101.625 14.0597C101.638 14.1765 101.652 14.295 101.671 14.4026C101.689 14.5266 101.711 14.6561 101.736 14.771C101.785 15.0336 101.849 15.2944 101.927 15.5498V15.5552C101.954 15.6446 101.982 15.734 102.009 15.8142C102.065 15.9948 102.129 16.1735 102.204 16.3468C102.231 16.4161 102.262 16.4836 102.291 16.5529L102.313 16.6021C102.351 16.6896 102.389 16.7735 102.427 16.8501C102.491 16.9869 102.56 17.1201 102.633 17.2514C102.678 17.3334 102.726 17.4173 102.775 17.4994C102.888 17.6909 102.995 17.8569 103.099 17.9991C103.37 18.3949 103.675 18.7669 104.01 19.1098C104.075 19.1791 104.143 19.2466 104.201 19.2977C104.321 19.4144 104.445 19.5293 104.57 19.6351C104.579 19.6442 104.59 19.6533 104.601 19.6624C104.719 19.7646 104.839 19.8612 104.972 19.9615C104.999 19.9834 105.029 20.0035 105.058 20.0235C105.18 20.1166 105.303 20.2041 105.429 20.2862C105.451 20.3008 105.474 20.3153 105.498 20.3281C105.593 20.3956 105.691 20.4558 105.791 20.5123C105.876 20.5689 105.967 20.6163 106.078 20.6783C106.198 20.7421 106.318 20.8059 106.433 20.8588C106.528 20.9063 106.62 20.9482 106.746 21.0066C106.904 21.0759 107.066 21.1379 107.217 21.1926C107.308 21.2291 107.403 21.2582 107.49 21.2856C107.608 21.3257 107.726 21.3622 107.846 21.395C107.865 21.4023 107.885 21.4078 107.905 21.4114C107.99 21.4352 108.07 21.4552 108.156 21.4716L108.167 21.4753C108.248 21.4972 108.33 21.5154 108.412 21.53C108.458 21.5446 108.503 21.5537 108.549 21.5592C108.634 21.5774 108.723 21.592 108.818 21.6048C109.083 21.6485 109.349 21.6795 109.618 21.696C109.671 21.6996 109.725 21.7014 109.769 21.7033C109.902 21.7105 110.033 21.7142 110.164 21.7142C110.295 21.7142 110.428 21.7105 110.54 21.7051C110.597 21.7051 110.655 21.7014 110.706 21.6978C110.979 21.6814 111.25 21.6504 111.519 21.6066C111.605 21.5938 111.692 21.5811 111.777 21.5628C111.814 21.5592 111.848 21.5519 111.883 21.5409C111.977 21.5227 112.068 21.5045 112.161 21.4789L112.172 21.4753C112.252 21.4589 112.33 21.4406 112.41 21.4169C112.429 21.4133 112.447 21.4078 112.465 21.4005C112.592 21.3677 112.714 21.3294 112.829 21.2893C112.923 21.2601 113.018 21.2309 113.1 21.1981C113.262 21.1397 113.424 21.0777 113.611 20.9956C113.707 20.9519 113.8 20.9099 113.889 20.8643C114.009 20.8078 114.129 20.7439 114.271 20.6692C114.36 20.6199 114.451 20.5689 114.519 20.5269C114.626 20.4667 114.73 20.4029 114.832 20.3318C114.855 20.319 114.877 20.3062 114.897 20.2916C115.024 20.2077 115.148 20.1202 115.27 20.0272C115.303 20.0071 115.332 19.9852 115.363 19.9615C115.488 19.8703 115.608 19.7719 115.727 19.6697C115.738 19.6606 115.747 19.6515 115.756 19.6424C115.883 19.5348 116.005 19.4217 116.116 19.3141C116.12 19.3104 116.123 19.3068 116.129 19.3013H116.13C116.194 19.2411 116.256 19.1791 116.314 19.1189C116.649 18.7761 116.955 18.4058 117.226 18.0101C117.333 17.8623 117.44 17.6964 117.555 17.5012C117.602 17.4192 117.651 17.3353 117.695 17.2568C117.768 17.1237 117.839 16.9924 117.897 16.8629C117.939 16.779 117.977 16.6951 118.015 16.6058L118.037 16.5565C118.068 16.4872 118.097 16.4197 118.122 16.3559C118.195 16.1826 118.261 16.0075 118.315 15.8288C118.346 15.7394 118.373 15.6501 118.401 15.5607V15.5534C118.479 15.3017 118.543 15.0464 118.592 14.7874C118.621 14.6616 118.643 14.5339 118.657 14.4172C118.674 14.3005 118.69 14.1819 118.706 14.047C118.721 13.9248 118.732 13.8026 118.737 13.6877C118.743 13.6111 118.746 13.5345 118.75 13.4597V13.4232C118.754 13.3138 118.757 13.208 118.757 13.0986C118.757 12.9892 118.761 12.8797 118.757 12.7703L118.754 12.7721ZM117.155 13.0986L117.964 11.6396C117.98 11.7216 117.997 11.8055 118.01 11.8912C118.026 11.9952 118.039 12.1028 118.053 12.225C118.066 12.3344 118.075 12.4457 118.082 12.5624C118.088 12.6299 118.091 12.6992 118.095 12.794C118.099 12.8962 118.101 12.9965 118.101 13.0986C118.101 13.2007 118.097 13.301 118.093 13.4305C118.09 13.498 118.088 13.5673 118.081 13.6421C118.075 13.7515 118.064 13.8628 118.05 13.9904C118.037 14.0944 118.026 14.202 118.006 14.3151C117.995 14.3935 117.979 14.4756 117.962 14.5576L117.155 13.0986ZM116.522 8.33667C116.587 8.42604 116.653 8.5154 116.716 8.61024C116.811 8.74703 116.9 8.88928 116.984 9.02789C117.027 9.10449 117.073 9.18291 117.116 9.25951C117.182 9.37806 117.244 9.49843 117.306 9.62792C117.344 9.70269 117.377 9.77747 117.411 9.85589L117.433 9.90696C117.46 9.96897 117.488 10.0292 117.515 10.0966C117.584 10.2626 117.64 10.4194 117.691 10.5836C117.704 10.6219 117.715 10.6602 117.728 10.6985L116.582 12.7667H113.664L112.838 11.2748L112.194 10.1149L112.836 8.95494L113.662 7.46307H115.759C115.787 7.49043 115.812 7.51414 115.841 7.54332C116.085 7.79136 116.312 8.05763 116.52 8.3385L116.522 8.33667ZM111.621 15.7504H108.703L107.877 14.2585L107.233 13.0986L107.875 11.9387L108.701 10.4468H111.619L112.445 11.9387L113.089 13.0986L112.447 14.2585L111.619 15.7504H111.621ZM113.338 5.80342C113.427 5.84355 113.511 5.88185 113.606 5.92926C113.718 5.98215 113.829 6.04052 113.957 6.10982C114.031 6.14994 114.108 6.19189 114.199 6.24843C114.291 6.29949 114.382 6.35603 114.47 6.41804C114.482 6.42716 114.519 6.44905 114.533 6.45634C114.652 6.53476 114.766 6.61501 114.879 6.70255C114.892 6.7135 114.926 6.73903 114.941 6.74632C114.944 6.74997 114.968 6.76821 114.974 6.77186C114.984 6.78098 114.995 6.79009 115.006 6.79921H113.664L113.047 5.68305C113.14 5.71953 113.236 5.75783 113.336 5.80342H113.338ZM108.345 5.35295C108.419 5.33288 108.492 5.31829 108.601 5.29458C108.612 5.29094 108.623 5.28911 108.634 5.28729C108.647 5.28729 108.661 5.28364 108.674 5.27999C108.749 5.26358 108.827 5.25264 108.929 5.23622C109.172 5.1961 109.416 5.16874 109.664 5.15415C109.704 5.15233 109.744 5.14868 109.815 5.14686C109.886 5.14503 109.951 5.14139 110.046 5.14139C110.084 5.13956 110.127 5.13956 110.164 5.13956C110.2 5.13956 110.244 5.13956 110.306 5.14321C110.375 5.14321 110.442 5.14321 110.54 5.1505C110.582 5.1505 110.624 5.15415 110.664 5.15598C110.919 5.17057 111.172 5.19975 111.423 5.24169C111.497 5.25264 111.575 5.26358 111.652 5.27999C111.665 5.28364 111.679 5.28547 111.692 5.28729C111.714 5.29094 111.736 5.29641 111.757 5.3037C111.834 5.31829 111.908 5.33288 111.983 5.35295H111.994C112.007 5.36024 112.019 5.36389 112.032 5.36571C112.065 5.37301 112.098 5.38213 112.132 5.38942L113.093 7.12932L112.825 7.61263L111.623 9.78294H108.705L107.503 7.61263L107.235 7.13114L108.197 5.39307C108.23 5.38577 108.263 5.37483 108.297 5.36936C108.31 5.36754 108.323 5.36389 108.336 5.36024L108.347 5.35659L108.345 5.35295ZM105.401 6.72991C105.416 6.72079 105.431 6.71167 105.443 6.70255C105.556 6.61501 105.671 6.53476 105.813 6.44175C105.827 6.43445 105.842 6.42534 105.854 6.41622C105.947 6.35056 106.044 6.29038 106.144 6.23566C106.216 6.18824 106.293 6.14812 106.384 6.09888C106.497 6.04052 106.608 5.98033 106.726 5.92379C106.813 5.88002 106.897 5.84172 107.008 5.79066C107.093 5.75236 107.186 5.71953 107.277 5.68488L106.664 6.79739H105.318C105.332 6.78645 105.345 6.7755 105.361 6.76456L105.403 6.72991H105.401ZM102.638 10.5726C102.686 10.4176 102.742 10.2626 102.815 10.0912C102.84 10.0292 102.868 9.96897 102.895 9.90696L102.917 9.85589C102.949 9.77747 102.984 9.70269 103.026 9.6188C103.082 9.4966 103.144 9.37806 103.211 9.25769C103.253 9.18109 103.297 9.10449 103.34 9.03154C103.426 8.88928 103.515 8.74703 103.612 8.60842C103.675 8.5154 103.739 8.42604 103.806 8.33485C104.014 8.05581 104.239 7.79136 104.483 7.54332C104.508 7.51779 104.539 7.48861 104.567 7.46125H106.664L107.49 8.95311L108.134 10.113L107.492 11.273L106.666 12.7648H103.748L102.6 10.693C102.613 10.6547 102.626 10.6164 102.642 10.5708L102.638 10.5726ZM102.362 14.5558C102.345 14.4737 102.329 14.3898 102.316 14.3041C102.3 14.2002 102.287 14.0926 102.273 13.9704C102.26 13.8609 102.251 13.7497 102.244 13.633C102.238 13.5673 102.234 13.4962 102.231 13.4013C102.227 13.2992 102.225 13.2007 102.225 13.0968C102.225 12.9928 102.229 12.8943 102.233 12.7648C102.236 12.6955 102.238 12.6281 102.245 12.5515C102.251 12.442 102.262 12.3308 102.276 12.2031C102.289 12.0992 102.3 11.9916 102.32 11.8785C102.331 11.8019 102.347 11.718 102.364 11.6359L103.171 13.0949L102.362 14.554V14.5558ZM103.635 17.6216C103.541 17.4885 103.444 17.3407 103.342 17.1675C103.297 17.0909 103.253 17.0143 103.21 16.9359C103.144 16.8173 103.082 16.6969 103.02 16.5675C102.982 16.4927 102.949 16.4179 102.915 16.3395L102.893 16.2884C102.866 16.2264 102.838 16.1662 102.811 16.0987C102.742 15.9328 102.686 15.7759 102.635 15.6118C102.622 15.5735 102.609 15.5352 102.598 15.4969L103.744 13.4305H106.662L107.488 14.9224L108.132 16.0823L107.49 17.2423L106.664 18.7341H104.567C104.539 18.7068 104.514 18.6831 104.487 18.6539C104.175 18.3347 103.892 17.9882 103.639 17.6198L103.635 17.6216ZM106.988 20.3938C106.899 20.3536 106.815 20.3153 106.72 20.2679C106.608 20.215 106.497 20.1567 106.369 20.0892C106.295 20.0491 106.218 20.0071 106.127 19.9506C106.035 19.8995 105.944 19.843 105.858 19.781C105.844 19.7719 105.809 19.75 105.793 19.7427C105.674 19.6643 105.56 19.584 105.447 19.4965C105.434 19.4873 105.398 19.46 105.383 19.4509C105.38 19.4472 105.356 19.429 105.351 19.4272C105.34 19.418 105.329 19.4089 105.318 19.3998H106.662L107.279 20.516C107.188 20.4795 107.091 20.4412 106.99 20.3974L106.988 20.3938ZM111.981 20.8424C111.907 20.8625 111.834 20.8771 111.725 20.9008C111.714 20.9044 111.703 20.9063 111.692 20.9081C111.679 20.9081 111.665 20.9117 111.652 20.9136C111.577 20.93 111.499 20.9409 111.397 20.9573C111.153 20.9974 110.91 21.0248 110.662 21.0394C110.624 21.0412 110.582 21.0449 110.522 21.0449C110.277 21.0576 110.031 21.0576 109.786 21.0449C109.744 21.0449 109.702 21.0412 109.662 21.0394C109.407 21.0248 109.154 20.9956 108.903 20.9537C108.829 20.9427 108.75 20.9318 108.674 20.9154C108.661 20.9117 108.647 20.9099 108.634 20.9081C108.612 20.9044 108.59 20.899 108.569 20.8917C108.492 20.8771 108.418 20.8625 108.343 20.8424H108.332C108.319 20.8351 108.307 20.8315 108.294 20.8297C108.261 20.8224 108.228 20.8132 108.196 20.8059L107.233 19.066L107.501 18.5846L108.703 16.4143H111.621L112.823 18.5846L113.091 19.066L112.128 20.8059C112.096 20.8132 112.063 20.8242 112.03 20.8297C112.018 20.8315 112.005 20.8351 111.992 20.8388L111.981 20.8424ZM114.923 19.4655C114.908 19.4728 114.893 19.4819 114.881 19.4928C114.768 19.5804 114.653 19.6624 114.513 19.7518C114.499 19.7591 114.484 19.7682 114.47 19.7773C114.377 19.843 114.28 19.9032 114.18 19.9579C114.108 20.0053 114.031 20.0454 113.94 20.0947C113.829 20.1549 113.717 20.2132 113.598 20.2698C113.511 20.3135 113.425 20.3518 113.318 20.4029C113.233 20.4412 113.14 20.474 113.049 20.5087L113.664 19.3962H115.01C114.995 19.4071 114.983 19.418 114.966 19.429L114.923 19.4655ZM117.688 15.6227C117.64 15.7777 117.584 15.9328 117.513 16.1042C117.488 16.1662 117.46 16.2264 117.433 16.2884L117.411 16.3395C117.378 16.4179 117.344 16.4927 117.302 16.5766C117.246 16.6988 117.184 16.8173 117.116 16.9377C117.075 17.0143 117.031 17.0909 116.987 17.1657C116.884 17.3407 116.789 17.4885 116.689 17.6271C116.436 17.9937 116.152 18.3402 115.841 18.6575C115.818 18.6831 115.792 18.7068 115.768 18.7323H113.666L112.84 17.2404L112.196 16.0805L112.838 14.9206L113.664 13.4287H116.582L117.728 15.4969C117.715 15.5388 117.702 15.5771 117.688 15.6227Z" fill="#292929"/>
<path d="M0 39.3411L3.01968 36.0857C3.40169 36.9775 4.01472 37.6797 4.8606 38.1921C5.70465 38.7046 6.65422 38.96 7.70747 38.96C8.98083 38.96 9.98678 38.6736 10.7271 38.1009C11.4675 37.5283 11.8386 36.7568 11.8386 35.7884C11.8386 34.643 10.6053 33.5032 8.14041 32.3688C7.34183 32.0058 6.71061 31.7085 6.24856 31.4769C4.02564 30.3754 2.48669 29.2993 1.63172 28.247C0.774931 27.1947 0.347445 25.9417 0.347445 24.4882C0.347445 22.4947 1.17695 20.8552 2.83777 19.573C4.4986 18.2891 6.65422 17.6489 9.30462 17.6489C10.8436 17.6489 12.1715 17.9043 13.2884 18.4167C14.4053 18.9292 15.3913 19.7299 16.2481 20.8205L13.0374 23.7459C12.6554 23.0419 12.1497 22.5148 11.5185 22.1683C10.8872 21.8218 10.1269 21.6485 9.2355 21.6485C8.1586 21.6485 7.2909 21.9038 6.63239 22.4163C5.97388 22.9288 5.6428 23.5927 5.6428 24.4079C5.6428 25.6864 6.95073 26.8536 9.56657 27.9114C10.0868 28.1211 10.487 28.2853 10.7635 28.4075C12.9155 29.3431 14.5108 30.4009 15.5459 31.5791C16.581 32.7572 17.0994 34.1014 17.0994 35.6096C17.0994 37.8784 16.2863 39.6876 14.66 41.0373C13.0338 42.3869 10.849 43.0617 8.10767 43.0617C6.16306 43.0617 4.49678 42.7425 3.10882 42.1042C1.72086 41.4658 0.683976 40.5448 0.00181909 39.3448L0 39.3411Z" fill="#292929"/>
<path d="M30.3497 22.2648V43.0597H25.1689V22.2648H19.2623V17.647H36.258V22.2648H30.3515H30.3497Z" fill="#292929"/>
<path d="M34.921 43.0579L44.1129 17.647H50.0194L59.3422 43.0579H53.4684L51.5056 37.6595H42.1501L40.4674 43.0579H34.9228H34.921ZM50.2996 33.39L47.5928 25.1792C47.5164 24.9367 47.4163 24.519 47.2963 23.9299C47.1762 23.3409 47.0489 22.6168 46.9161 21.7596C46.7724 22.5822 46.6359 23.319 46.5031 23.9719C46.3703 24.6248 46.2721 25.0625 46.2066 25.2832L43.5999 33.39H50.2996Z" fill="#292929"/>
<path d="M61.8835 43.0579V17.647H68.4667C71.0626 17.647 73.1091 17.8385 74.6043 18.2196C76.0996 18.6008 77.4148 19.2373 78.5481 20.1292C80.0107 21.2745 81.1203 22.7189 81.8734 24.4607C82.6265 26.2024 83.0031 28.183 83.0031 30.4062C83.0031 32.6294 82.6174 34.6611 81.8479 36.4029C81.0785 38.1446 79.9506 39.5817 78.4644 40.7161C77.3639 41.5496 76.1396 42.1478 74.7935 42.5126C73.4456 42.8773 71.4737 43.0597 68.8779 43.0597H61.8817L61.8835 43.0579ZM67.0479 38.4765H69.9184C72.6252 38.4765 74.5971 37.8291 75.834 36.5324C77.071 35.2356 77.6913 33.182 77.6913 30.3698C77.6913 27.5575 77.0728 25.5185 75.834 24.2163C74.5971 22.9141 72.6252 22.263 69.9184 22.263H67.0479V38.4747V38.4765Z" fill="#292929"/>
<path d="M87.4271 42.6494V17.647H92.5915V42.6494H87.4271Z" fill="#292929"/>
<path d="M127.196 43.058V17.6471H132.559L143.251 32.4362C143.559 32.8521 143.897 33.4411 144.266 34.198C144.636 34.9567 145.018 35.8504 145.412 36.879C145.29 36.1276 145.203 35.3798 145.148 34.6394C145.094 33.8989 145.067 32.9724 145.067 31.8617V17.6453H150V43.0562H144.934L133.945 27.9898C133.637 27.574 133.301 26.9867 132.939 26.228C132.575 25.4712 132.191 24.5647 131.784 23.5124C131.906 24.2419 131.993 24.9787 132.047 25.7247C132.102 26.4706 132.129 27.4117 132.129 28.5461V43.0562H127.196V43.058Z" fill="#292929"/>
<path d="M89.2207 57.2052V78.0001H84.0399V57.2052H78.1334V52.5874H95.1291V57.2052H89.2225H89.2207Z" fill="#292929"/>
<path d="M122.652 65.2938C122.652 67.0246 122.33 68.6641 121.686 70.2071C121.042 71.7518 120.116 73.1087 118.906 74.2778C117.653 75.4797 116.238 76.4007 114.666 77.0408C113.093 77.681 111.464 78.0001 109.782 78.0001C108.308 78.0001 106.864 77.7485 105.451 77.2469C104.037 76.7454 102.742 76.025 101.565 75.0875C100.046 73.8747 98.8837 72.4248 98.0742 70.736C97.2665 69.049 96.8608 67.2343 96.8608 65.2938C96.8608 63.5521 97.1792 61.9161 97.8177 60.3878C98.4562 58.8594 99.3912 57.5007 100.623 56.3098C101.832 55.1298 103.239 54.2142 104.839 53.5631C106.44 52.912 108.088 52.5874 109.782 52.5874C111.475 52.5874 113.102 52.912 114.692 53.5631C116.281 54.2142 117.686 55.1298 118.908 56.3098C120.129 57.5007 121.058 58.8631 121.697 60.3969C122.335 61.9307 122.654 63.563 122.654 65.2938H122.652ZM109.782 73.3841C111.97 73.3841 113.778 72.6145 115.203 71.077C116.627 69.5377 117.34 67.6118 117.34 65.2956C117.34 62.9794 116.62 61.0717 115.179 59.505C113.738 57.9384 111.939 57.156 109.784 57.156C107.628 57.156 105.78 57.9366 104.339 59.4978C102.898 61.0589 102.178 62.9921 102.178 65.2956C102.178 67.599 102.887 69.5669 104.306 71.0934C105.725 72.6218 107.552 73.3841 109.785 73.3841H109.782Z" fill="#292929"/>
<path d="M127.009 78V52.5891H132.95C136.119 52.5891 138.458 53.2256 139.971 54.4986C141.485 55.7716 142.24 57.7395 142.24 60.4004C142.24 62.8644 141.478 64.7976 139.955 66.1983C138.431 67.5989 136.322 68.2993 133.626 68.2993H132.207V78.0018H127.01L127.009 78ZM132.207 64.0608H132.95C134.358 64.0608 135.38 63.7544 136.018 63.1416C136.657 62.5288 136.975 61.5439 136.975 60.1907C136.975 58.9414 136.657 58.0295 136.018 57.4568C135.38 56.8841 134.358 56.5978 132.95 56.5978H132.207V64.0608Z" fill="#292929"/>
<path d="M120.827 24.7562L117.558 29.0239C117.487 29.1169 117.457 29.2318 117.467 29.3485C117.502 29.675 117.524 30.0087 117.524 30.3534C117.524 32.6696 116.811 34.5974 115.386 36.1348C113.962 37.6741 112.156 38.4419 109.966 38.4419C107.775 38.4419 105.905 37.6778 104.486 36.1513C103.068 34.6229 102.358 32.6915 102.358 30.3534C102.358 29.8245 102.398 29.3157 102.475 28.8269C102.495 28.7029 102.464 28.5789 102.387 28.4804L99.2457 24.375C99.0437 24.1124 98.6381 24.1434 98.4816 24.4352C98.3052 24.7635 98.1451 25.1027 98.0014 25.4492C97.3629 26.9776 97.0446 28.6117 97.0446 30.3552C97.0446 32.2958 97.4484 34.1104 98.2579 35.7974C99.0656 37.4845 100.23 38.9362 101.749 40.149C102.926 41.0864 104.221 41.8068 105.634 42.3084C107.048 42.8099 108.492 43.0616 109.966 43.0616C111.648 43.0616 113.276 42.7425 114.85 42.1023C116.423 41.4621 117.837 40.5411 119.09 39.3393C120.3 38.1702 121.227 36.8133 121.87 35.2685C122.514 33.7238 122.836 32.086 122.836 30.3552C122.836 28.6245 122.517 26.9922 121.879 25.4584C121.791 25.2468 121.697 25.0389 121.597 24.8328C121.448 24.5282 121.031 24.4881 120.825 24.758L120.827 24.7562Z" fill="#292929"/>
</g>
<defs>
<clipPath id="clip0_1315_807">
<rect width="150" height="78" fill="white"/>
</clipPath>
</defs>
</svg>
