<svg width="830" height="334" viewBox="0 0 830 334" fill="none" xmlns="http://www.w3.org/2000/svg">
<path d="M0 120.486L16.7149 102.519C18.8297 107.448 22.225 111.318 26.9009 114.141C31.5768 116.964 36.8251 118.381 42.6554 118.381C49.6983 118.381 55.2667 116.799 59.3703 113.637C63.4641 110.474 65.5207 106.216 65.5207 100.87C65.5207 94.5453 58.7009 88.259 45.0612 81.9921C40.6473 79.984 37.1549 78.3445 34.5938 77.064C22.3027 70.9815 13.7851 65.0444 9.04135 59.2335C4.30725 53.4323 1.9305 46.5155 1.9305 38.4927C1.9305 27.4918 6.52879 18.4504 15.7157 11.3687C24.9025 4.28695 36.8348 0.746094 51.493 0.746094C60.0105 0.746094 67.3542 2.16244 73.5337 4.98544C79.7133 7.80843 85.175 12.2321 89.9091 18.2564L72.1368 34.3989C70.022 30.5088 67.2184 27.6082 63.7357 25.6874C60.253 23.7666 56.0331 22.8159 51.105 22.8159C45.1486 22.8159 40.3465 24.2323 36.699 27.0553C33.0514 29.8783 31.2276 33.5452 31.2276 38.0465C31.2276 45.0991 38.4645 51.5406 52.9385 57.3806C55.8197 58.5351 58.0315 59.447 59.5643 60.1163C71.4771 65.287 80.2953 71.1173 86.0286 77.6267C91.762 84.1361 94.6238 91.5477 94.6238 99.8808C94.6238 112.405 90.1225 122.387 81.1296 129.838C72.1368 137.288 60.0493 141.003 44.8672 141.003C34.1088 141.003 24.8831 139.238 17.1999 135.716C9.5167 132.195 3.7834 127.112 0.00970309 120.486H0Z" fill="white"/>
<path d="M167.935 26.2424V141.005H139.268V26.2424H106.576V0.757812H200.627V26.2424H167.935Z" fill="white"/>
<path d="M193.225 141.005L244.087 0.757812H276.779L328.37 141.005H295.861L284.996 111.214H233.222L223.909 141.005H193.234H193.225ZM278.322 87.6499L263.344 42.3364C262.917 40.9977 262.373 38.6985 261.704 35.439C261.035 32.1794 260.336 28.1923 259.609 23.4679C258.813 28.008 258.057 32.0727 257.329 35.6815C256.601 39.2903 256.048 41.7058 255.689 42.9185L241.264 87.6596H278.332L278.322 87.6499Z" fill="white"/>
<path d="M342.418 141.005V0.757812H378.845C393.212 0.757812 404.533 1.81523 412.808 3.92035C421.083 6.02548 428.359 9.53723 434.636 14.4556C442.736 20.7807 448.867 28.7453 453.038 38.359C457.21 47.9727 459.295 58.9057 459.295 71.1678C459.295 83.4299 457.161 94.654 452.903 104.268C448.644 113.881 442.406 121.817 434.189 128.074C428.107 132.672 421.326 135.98 413.875 137.988C406.415 139.997 395.511 141.005 381.144 141.005H342.427H342.418ZM370.997 115.715H386.887C401.865 115.715 412.769 112.135 419.618 104.986C426.467 97.8359 429.892 86.4954 429.892 70.9738C429.892 55.4522 426.467 44.199 419.618 37.0105C412.769 29.8221 401.856 26.2327 386.887 26.2327H370.997V115.705V115.715Z" fill="white"/>
<path d="M483.761 138.755V0.757812H512.34V138.755H483.761Z" fill="white"/>
<path d="M703.819 141.005V0.757812H733.494L792.661 82.3822C794.368 84.6814 796.24 87.9215 798.278 92.1026C800.315 96.2838 802.43 101.222 804.622 106.906C803.953 102.754 803.468 98.6314 803.157 94.5473C802.856 90.4632 802.701 85.3507 802.701 79.2197V0.757812H830V141.005H801.964L741.158 57.8483C739.451 55.5492 737.598 52.3091 735.59 48.1279C733.581 43.9468 731.447 38.9507 729.197 33.1398C729.866 37.1657 730.351 41.2305 730.661 45.3534C730.972 49.4763 731.117 54.6664 731.117 60.9236V141.015H703.819V141.005Z" fill="white"/>
<path d="M493.685 219.077V333.84H465.019V219.077H432.326V193.592H526.378V219.077H493.685Z" fill="white"/>
<path d="M677.228 43.7807C673.668 35.108 668.536 27.483 661.843 20.9154C654.906 14.1635 647.078 8.98314 638.376 5.39377C629.674 1.80439 620.662 0 611.349 0C603.19 0 595.206 1.40666 587.378 4.22966C579.559 7.05266 572.389 11.0883 565.87 16.3559C557.469 23.1758 551.037 31.3149 546.556 40.7928C542.074 50.2707 539.843 60.4665 539.843 71.3704V262.461C539.843 273.365 542.083 283.561 546.556 293.039C551.028 302.517 557.469 310.666 565.87 317.476C572.38 322.743 579.549 326.789 587.378 329.602C595.206 332.415 603.19 333.832 611.349 333.832C620.662 333.832 629.674 332.037 638.376 328.438C647.078 324.848 654.906 319.668 661.843 312.916C668.536 306.349 673.668 298.733 677.228 290.051C680.789 281.378 682.574 272.172 682.574 262.451V71.3607C682.574 61.6306 680.789 52.434 677.228 43.7613V43.7807ZM641.344 294.95C633.457 303.593 623.465 307.91 611.349 307.91C599.232 307.91 588.891 303.623 581.033 295.037C573.185 286.452 569.256 275.596 569.256 262.461V71.3704C569.256 58.2352 573.185 47.3798 581.033 38.7944C588.881 30.209 598.99 25.9211 611.349 25.9211C623.708 25.9211 633.457 30.2381 641.344 38.8817C649.231 47.5253 653.17 58.3516 653.17 71.3607V262.451C653.17 275.46 649.231 286.287 641.344 294.93V294.95Z" fill="white"/>
<path d="M702.781 333.853V193.605H735.648C753.178 193.605 766.128 197.117 774.5 204.14C782.872 211.164 787.054 222.019 787.054 236.716C787.054 250.317 782.834 260.988 774.403 268.71C765.973 276.442 754.303 280.303 739.383 280.303H731.535V333.853H702.771H702.781ZM731.544 256.924H735.658C743.447 256.924 749.113 255.236 752.644 251.85C756.175 248.464 757.941 243.032 757.941 235.562C757.941 228.664 756.175 223.639 752.644 220.477C749.113 217.314 743.457 215.733 735.658 215.733H731.544V256.924Z" fill="white"/>
</svg>
